<svg width="203" height="202" viewBox="0 0 203 202" fill="none" xmlns="http://www.w3.org/2000/svg">
<path d="M187.119 102.198L202.405 103.143L202.295 104.921L188.57 104.073L188.089 111.857L186.528 111.76L187.119 102.198Z" fill="#EEEDF2"/>
<path d="M185.124 118.103C185.443 116.468 186.171 115.267 187.309 114.5C188.461 113.736 189.861 113.514 191.51 113.835C192.577 114.043 193.473 114.439 194.201 115.023C194.942 115.61 195.461 116.316 195.758 117.141C196.066 117.983 196.125 118.895 195.934 119.876C195.66 121.283 194.99 122.296 193.925 122.915C192.875 123.537 191.561 123.694 189.983 123.387L189.322 123.258L190.841 115.454C189.65 115.281 188.681 115.446 187.934 115.95C187.201 116.456 186.726 117.264 186.51 118.373C186.389 118.998 186.365 119.613 186.439 120.218C186.527 120.825 186.742 121.428 187.083 122.025L185.751 122.386C185.402 121.831 185.17 121.166 185.055 120.391C184.955 119.619 184.978 118.856 185.124 118.103ZM194.646 119.669C194.837 118.688 194.682 117.854 194.182 117.166C193.681 116.479 192.943 115.988 191.967 115.695L190.742 121.985C191.803 122.148 192.674 122.03 193.357 121.631C194.036 121.247 194.466 120.593 194.646 119.669Z" fill="#EEEDF2"/>
<path d="M182.514 127.977C182.881 126.787 183.467 125.99 184.273 125.586C185.093 125.187 186.098 125.171 187.289 125.538L192.583 127.168L193.19 125.195L194.498 125.598L193.891 127.571L196.985 128.523L196.467 130.205L193.373 129.252L192.389 132.45L191.081 132.047L192.065 128.85L186.937 127.27C186.148 127.028 185.495 127.008 184.977 127.213C184.473 127.421 184.107 127.899 183.876 128.647C183.808 128.868 183.768 129.098 183.755 129.337C183.742 129.575 183.736 129.793 183.736 129.99L182.359 129.884C182.317 129.674 182.308 129.384 182.332 129.012C182.355 128.64 182.416 128.295 182.514 127.977Z" fill="#EEEDF2"/>
<path d="M191.523 138.55L196.673 137.639L195.945 139.36L191.032 139.711L191.523 138.55Z" fill="#EEEDF2"/>
<path d="M175.711 143.222C176.12 142.505 176.608 141.883 177.176 141.357C177.743 140.83 178.328 140.464 178.93 140.257L179.725 141.361C179.102 141.606 178.548 141.948 178.063 142.389C177.583 142.849 177.182 143.362 176.859 143.928C176.449 144.644 176.273 145.261 176.328 145.776C176.384 146.292 176.639 146.679 177.091 146.937C177.443 147.138 177.788 147.177 178.126 147.053C178.476 146.936 178.855 146.652 179.263 146.201L180.62 144.7C181.851 143.334 183.101 143.014 184.371 143.739C185.201 144.213 185.681 144.921 185.811 145.862C185.933 146.816 185.689 147.828 185.078 148.897C184.719 149.525 184.278 150.065 183.753 150.516C183.234 150.987 182.678 151.303 182.086 151.465L181.301 150.342C181.849 150.171 182.351 149.891 182.807 149.501C183.269 149.131 183.636 148.707 183.909 148.229C184.311 147.524 184.478 146.911 184.41 146.388C184.341 145.865 184.081 145.475 183.628 145.216C182.923 144.814 182.205 145.021 181.472 145.837L180.134 147.349C179.498 148.053 178.867 148.501 178.24 148.694C177.625 148.893 176.991 148.806 176.337 148.433C175.495 147.952 175.018 147.238 174.909 146.291C174.811 145.352 175.079 144.329 175.711 143.222Z" fill="#EEEDF2"/>
<path d="M166.36 156.585C167.147 155.619 167.99 155.101 168.888 155.03C169.798 154.967 170.736 155.33 171.702 156.116L175.996 159.615L177.3 158.015L178.361 158.879L177.058 160.48L179.567 162.524L178.456 163.888L175.946 161.844L173.833 164.438L172.772 163.573L174.885 160.979L170.725 157.59C170.085 157.069 169.487 156.806 168.93 156.801C168.385 156.805 167.866 157.11 167.372 157.717C167.225 157.896 167.101 158.094 167 158.311C166.898 158.527 166.811 158.726 166.737 158.909L165.5 158.294C165.541 158.084 165.642 157.811 165.803 157.476C165.964 157.14 166.15 156.843 166.36 156.585Z" fill="#EEEDF2"/>
<path d="M161.947 161.343C162.461 160.833 163.02 160.472 163.625 160.259C164.23 160.066 164.824 160.028 165.408 160.142C165.991 160.257 166.497 160.53 166.925 160.962C167.466 161.507 167.756 162.076 167.795 162.67C167.823 163.275 167.58 163.965 167.065 164.742C166.55 165.538 165.728 166.498 164.597 167.62L164.104 168.11L164.578 168.588C165.211 169.225 165.798 169.55 166.341 169.562C166.884 169.595 167.443 169.326 168.018 168.754C168.471 168.305 168.841 167.805 169.13 167.253C169.429 166.711 169.657 166.077 169.813 165.351L171.147 165.832C171.032 166.497 170.779 167.187 170.387 167.903C169.985 168.628 169.527 169.246 169.013 169.756C168.047 170.716 167.098 171.188 166.166 171.175C165.224 171.171 164.258 170.671 163.268 169.674L158.585 164.956L159.757 163.793L161.042 165.088C160.799 164.452 160.755 163.802 160.911 163.137C161.057 162.482 161.402 161.884 161.947 161.343ZM162.68 162.483C162.063 163.095 161.769 163.806 161.797 164.615C161.835 165.434 162.18 166.173 162.833 166.831L163.293 167.293L163.77 166.819C164.603 165.992 165.22 165.298 165.621 164.736C166.023 164.195 166.224 163.73 166.226 163.341C166.227 162.972 166.064 162.623 165.738 162.294C165.319 161.873 164.834 161.671 164.281 161.69C163.717 161.719 163.184 161.983 162.68 162.483Z" fill="#EEEDF2"/>
<path d="M153.929 168.484C154.76 167.807 155.585 167.536 156.405 167.672C157.223 167.827 158.012 168.371 158.771 169.303L166.235 178.466L164.871 179.577L157.489 170.516C156.51 169.314 155.544 169.102 154.589 169.88C154.309 170.108 154.083 170.348 153.914 170.598L153.014 169.425C153.298 169.063 153.603 168.749 153.929 168.484Z" fill="#EEEDF2"/>
<path d="M151.801 170.429L160.258 183.198L158.791 184.17L153.573 176.291L153.537 176.315L152.053 182.926L150.187 184.162L151.799 176.997L143.977 175.612L145.842 174.376L153.033 175.554L153.069 175.53L150.334 171.401L151.801 170.429Z" fill="#EEEDF2"/>
<path d="M135.438 179.82L142.86 188.295L141.134 188.951L135.338 182.065L135.467 191.101L134.066 191.633L128.201 184.75L128.399 193.783L126.754 194.408L126.704 183.134L128.268 182.54L133.957 189.142L133.854 180.421L135.438 179.82Z" fill="#EEEDF2"/>
<path d="M125.543 196.988L126.009 198.91L123.898 199.422L123.432 197.501L125.543 196.988ZM122.222 184.225L124.712 194.485L123.002 194.9L120.512 184.64L122.222 184.225Z" fill="#EEEDF2"/>
<path d="M113.234 185.802C114.463 185.601 115.437 185.772 116.157 186.315C116.879 186.873 117.34 187.766 117.54 188.995L118.432 194.462L120.469 194.13L120.689 195.481L118.652 195.813L119.174 199.008L117.437 199.291L116.916 196.097L113.614 196.635L113.394 195.284L116.695 194.746L115.832 189.45C115.699 188.635 115.426 188.041 115.013 187.668C114.602 187.31 114.011 187.194 113.239 187.319C113.01 187.357 112.786 187.423 112.567 187.517C112.347 187.612 112.15 187.703 111.973 187.79L111.456 186.51C111.626 186.379 111.882 186.242 112.225 186.098C112.569 185.954 112.905 185.855 113.234 185.802Z" fill="#EEEDF2"/>
<path d="M110.147 186.458L110.974 201.751L109.217 201.846L108.866 195.36C108.554 196.015 108.095 196.518 107.49 196.87C106.872 197.237 106.172 197.442 105.391 197.484C102.89 197.619 101.564 196.299 101.413 193.522L101.058 186.949L102.815 186.854L103.165 193.319C103.218 194.302 103.452 195.007 103.866 195.435C104.267 195.877 104.887 196.075 105.726 196.03C106.695 195.978 107.452 195.632 107.998 194.994C108.53 194.37 108.769 193.559 108.715 192.562L108.39 186.553L110.147 186.458Z" fill="#EEEDF2"/>
<path d="M88.5838 185.697C89.601 185.847 90.4495 186.199 91.1291 186.753C91.8086 187.307 92.297 188.015 92.5943 188.879C92.8751 189.755 92.9342 190.744 92.7715 191.848C92.6089 192.951 92.2679 193.874 91.7484 194.617C91.2125 195.373 90.5393 195.918 89.7288 196.252C88.9183 196.586 88.0044 196.679 86.9871 196.529C85.9841 196.381 85.1429 196.03 84.4633 195.476C83.7694 194.92 83.282 194.204 83.0012 193.328C82.704 192.464 82.6367 191.481 82.7993 190.378C82.9619 189.274 83.3112 188.345 83.8471 187.59C84.3665 186.846 85.0387 186.309 85.8635 185.976C86.6741 185.642 87.5808 185.549 88.5838 185.697ZM88.3778 187.094C87.4035 186.95 86.572 187.179 85.8832 187.78C85.1922 188.395 84.7517 189.348 84.5616 190.637C84.3694 191.941 84.5164 192.98 85.0024 193.755C85.4885 194.529 86.2187 194.988 87.193 195.132C88.1816 195.277 89.0204 195.05 89.7092 194.448C90.3837 193.845 90.817 192.892 91.0092 191.588C91.1993 190.298 91.0595 189.26 90.5899 188.474C90.1038 187.699 89.3665 187.239 88.3778 187.094Z" fill="#EEEDF2"/>
<path d="M78.2187 183.503C80.6573 184.193 81.4957 185.883 80.734 188.573L78.946 194.885L77.253 194.405L79.035 188.114C79.2915 187.208 79.2998 186.488 79.0599 185.953C78.806 185.415 78.2819 185.033 77.4876 184.808C76.6237 184.564 75.8391 184.65 75.1338 185.067C74.4246 185.499 73.9338 186.195 73.6615 187.156L72.0275 192.925L70.3345 192.446L73.2117 182.288L74.863 182.755L74.3775 184.469C74.8717 183.947 75.4587 183.601 76.1387 183.433C76.8008 183.274 77.4941 183.297 78.2187 183.503Z" fill="#EEEDF2"/>
<path d="M70.8631 181.336L66.8595 191.105L65.2715 190.454L65.9882 188.706C64.9822 189.671 63.6438 189.881 61.9728 189.337L61.3652 189.159L61.8212 187.702L62.8958 188.002C63.8534 188.3 64.6778 188.294 65.369 187.982C66.0546 187.684 66.5759 187.1 66.9329 186.229L69.2148 180.66L70.8631 181.336Z" fill="#EEEDF2"/>
<path d="M55.1247 173.185C56.5364 174.069 57.3961 175.179 57.7037 176.517C58.0036 177.866 57.7079 179.253 56.8164 180.677C56.2401 181.598 55.5488 182.293 54.7425 182.762C53.9285 183.243 53.0832 183.474 52.2066 183.455C51.3101 183.441 50.4383 183.169 49.5913 182.638C48.376 181.878 47.6705 180.889 47.4749 179.673C47.2716 178.469 47.5964 177.186 48.4494 175.824L48.8068 175.253L55.5462 179.472C56.1349 178.422 56.3283 177.458 56.1263 176.58C55.9166 175.714 55.333 174.981 54.3755 174.382C53.8353 174.044 53.2698 173.801 52.6788 173.653C52.0802 173.517 51.4408 173.502 50.7607 173.605L50.9021 172.233C51.5455 172.106 52.2493 172.128 53.0137 172.299C53.7704 172.482 54.4741 172.778 55.1247 173.185ZM50.2461 181.51C51.0931 182.041 51.9274 182.196 52.7488 181.975C53.5703 181.755 54.293 181.242 54.9168 180.436L49.4848 177.036C48.953 177.967 48.7505 178.823 48.8773 179.603C48.9919 180.375 49.4482 181.011 50.2461 181.51Z" fill="#EEEDF2"/>
<path d="M51.1629 170.93L44.3168 172.386L44.2926 178.951L42.6757 177.634L42.7568 172.685L37.9091 173.751L36.309 172.448L42.7335 171.097L42.7751 164.098L44.392 165.415L44.3378 170.778L49.546 169.613L51.1629 170.93Z" fill="#EEEDF2"/>
<path d="M44.8206 160.599L34.2969 170.528L33.1192 169.28L34.4939 167.983C33.8012 168.198 33.1095 168.204 32.4188 167.999C31.7076 167.794 31.0637 167.386 30.4873 166.775C29.8412 166.09 29.443 165.341 29.2925 164.528C29.1215 163.713 29.207 162.886 29.5491 162.045C29.8706 161.204 30.4422 160.396 31.2639 159.621C32.075 158.856 32.915 158.332 33.7838 158.05C34.6321 157.767 35.4631 157.73 36.2766 157.938C37.0802 158.136 37.8051 158.577 38.4511 159.261C39.0077 159.851 39.3729 160.502 39.5469 161.214C39.7209 161.926 39.6805 162.611 39.4257 163.27L43.613 159.319L44.8206 160.599ZM37.6775 160.499C37.0016 159.783 36.2071 159.447 35.294 159.492C34.3703 159.547 33.4345 160.022 32.4864 160.917C31.5278 161.821 30.9994 162.728 30.9012 163.637C30.8031 164.546 31.092 165.358 31.7678 166.075C32.4436 166.791 33.2381 167.127 34.1513 167.082C35.0644 167.036 36.0003 166.562 36.9589 165.657C37.907 164.763 38.4353 163.856 38.544 162.937C38.6422 162.028 38.3533 161.215 37.6775 160.499Z" fill="#EEEDF2"/>
<path d="M31.2978 150.468C32.2727 151.818 32.6506 153.171 32.4318 154.525C32.2012 155.889 31.4048 157.062 30.0426 158.045C29.1619 158.681 28.2597 159.064 27.3361 159.195C26.4007 159.334 25.5306 159.23 24.7258 158.882C23.9007 158.531 23.1958 157.95 22.6109 157.14C21.7717 155.978 21.4905 154.796 21.7674 153.596C22.0325 152.405 22.8168 151.338 24.1203 150.397L24.6663 150.003L29.32 156.45C30.2607 155.7 30.803 154.88 30.9467 153.99C31.0787 153.109 30.8141 152.21 30.1529 151.294C29.7799 150.777 29.3476 150.339 28.8559 149.98C28.3524 149.629 27.7661 149.373 27.0969 149.213L27.7449 147.995C28.3886 148.12 29.0324 148.406 29.676 148.852C30.308 149.307 30.8486 149.845 31.2978 150.468ZM23.6423 156.342C24.2272 157.152 24.9417 157.61 25.7857 157.715C26.6297 157.821 27.4924 157.618 28.3737 157.106L24.6228 151.91C23.7793 152.573 23.2693 153.289 23.093 154.059C22.9082 154.818 23.0913 155.579 23.6423 156.342Z" fill="#EEEDF2"/>
<path d="M27.7963 145.556L18.6279 150.791L17.7768 149.301L19.4181 148.364C18.0313 148.505 16.8467 147.847 15.8646 146.39L15.4956 145.875L16.7515 145.008L17.4141 145.906C17.9851 146.73 18.6388 147.233 19.3753 147.413C20.0991 147.6 20.8698 147.46 21.6873 146.993L26.9129 144.009L27.7963 145.556Z" fill="#EEEDF2"/>
<path d="M22.6315 135.158C23.1549 136.289 23.2518 137.273 22.9221 138.112C22.5792 138.957 21.8427 139.641 20.7125 140.165L15.6857 142.493L16.553 144.365L15.311 144.941L14.4438 143.068L11.5066 144.428L10.7671 142.831L13.7043 141.471L12.2985 138.435L13.5404 137.86L14.9463 140.896L19.8154 138.641C20.5645 138.294 21.0631 137.872 21.3113 137.374C21.5463 136.882 21.4995 136.281 21.1709 135.571C21.0735 135.361 20.9499 135.163 20.7999 134.977C20.65 134.791 20.5092 134.625 20.3775 134.478L21.4719 133.636C21.643 133.765 21.844 133.975 22.075 134.267C22.306 134.559 22.4915 134.856 22.6315 135.158Z" fill="#EEEDF2"/>
<path d="M20.188 128.814C20.4547 129.596 20.5976 130.373 20.6169 131.147C20.6362 131.921 20.5242 132.602 20.2811 133.19L18.9268 133.055C19.1559 132.426 19.2658 131.784 19.2565 131.129C19.2289 130.465 19.1098 129.825 18.8993 129.208C18.6327 128.427 18.2876 127.887 17.8641 127.587C17.4406 127.288 16.9821 127.223 16.4887 127.391C16.1049 127.522 15.8478 127.755 15.7174 128.091C15.5733 128.43 15.5354 128.902 15.6039 129.507L15.8312 131.518C16.0412 133.344 15.454 134.493 14.0696 134.965C13.165 135.274 12.3169 135.166 11.5254 134.64C10.7292 134.101 10.1323 133.249 9.73472 132.083C9.50083 131.398 9.38828 130.71 9.39708 130.018C9.3875 129.317 9.51813 128.691 9.78899 128.14L11.1504 128.295C10.9159 128.819 10.794 129.381 10.7845 129.981C10.7567 130.572 10.8317 131.128 11.0094 131.648C11.2714 132.416 11.621 132.947 12.0582 133.242C12.4954 133.536 12.9607 133.599 13.4541 133.431C14.2217 133.169 14.542 132.493 14.4152 131.404L14.1673 129.4C14.0598 128.457 14.1413 127.687 14.4118 127.09C14.6687 126.497 15.1534 126.079 15.8662 125.836C16.7845 125.523 17.6349 125.638 18.4174 126.182C19.1862 126.731 19.7764 127.608 20.188 128.814Z" fill="#EEEDF2"/>
<path d="M11.6667 116.44L10.215 116.545L9.77689 110.478L11.2286 110.373L11.6667 116.44Z" fill="#EEEDF2"/>
<path d="M15.2826 99.4801L0 98.4763L0.11675 96.6988L13.8386 97.6L14.3497 89.8178L15.9105 89.9203L15.2826 99.4801Z" fill="#EEEDF2"/>
<path d="M17.3365 83.5658C17.0119 85.1994 16.2792 86.3975 15.1384 87.1601C13.9834 87.92 12.582 88.1362 10.9342 87.8089C9.86878 87.5972 8.97357 87.1979 8.24854 86.6108C7.50931 86.021 6.99289 85.313 6.69928 84.4869C6.39429 83.6437 6.33915 82.732 6.53388 81.7519C6.81327 80.3456 7.48655 79.335 8.55371 78.7201C9.60668 78.1024 10.9215 77.9502 12.4983 78.2634L13.1588 78.3947L11.6095 86.1933C12.7998 86.3707 13.7696 86.209 14.5188 85.7081C15.2538 85.2044 15.7313 84.3986 15.9515 83.2906C16.0756 82.6656 16.1018 82.0506 16.03 81.4457C15.9441 80.838 15.7317 80.2347 15.3929 79.6358L16.726 79.2805C17.0732 79.8368 17.3027 80.5025 17.4145 81.2778C17.512 82.0502 17.486 82.8129 17.3365 83.5658ZM7.82081 81.9632C7.62608 82.9434 7.77769 83.7782 8.27562 84.4678C8.77356 85.1574 9.50983 85.6506 10.4844 85.9476L11.7332 79.6618C10.6736 79.4956 9.80175 79.6104 9.11774 80.006C8.43655 80.3875 8.00424 81.0399 7.82081 81.9632Z" fill="#EEEDF2"/>
<path d="M19.9766 73.7227C19.6055 74.9116 19.0162 75.7063 18.2085 76.1066C17.3871 76.5026 16.3818 76.5151 15.1929 76.1441L9.90473 74.4938L9.28993 76.4639L7.98345 76.0562L8.59825 74.0861L5.50832 73.1218L6.03252 71.4421L9.12245 72.4064L10.1191 69.2127L11.4256 69.6205L10.4289 72.8141L15.5512 74.4126C16.3392 74.6585 16.9924 74.6803 17.5107 74.4779C18.0152 74.2712 18.3839 73.7946 18.6169 73.048C18.6859 72.8268 18.7273 72.597 18.741 72.3585C18.7547 72.12 18.762 71.9023 18.7628 71.7053L20.1391 71.8163C20.1798 72.0262 20.1877 72.3169 20.1628 72.6884C20.1379 73.0599 20.0758 73.4047 19.9766 73.7227Z" fill="#EEEDF2"/>
<path d="M10.9558 63.2285L5.80221 64.1209L6.53642 62.4029L11.451 62.0699L10.9558 63.2285Z" fill="#EEEDF2"/>
<path d="M26.8147 58.5308C26.4027 59.2461 25.9119 59.866 25.3425 60.3904C24.7731 60.9148 24.1871 61.2793 23.5846 61.4838L22.7935 60.3764C23.4177 60.1342 23.973 59.7939 24.4595 59.3554C24.9407 58.8972 25.3439 58.3857 25.6692 57.8209C26.0812 57.1056 26.2602 56.49 26.2063 55.9743C26.1523 55.4585 25.8995 55.0705 25.4476 54.8103C25.0962 54.6079 24.7515 54.5682 24.4133 54.691C24.0627 54.8065 23.6827 55.0891 23.2734 55.5386L21.9102 57.0348C20.6751 58.3959 19.4238 58.7114 18.1562 57.9814C17.3279 57.5043 16.8507 56.7949 16.7245 55.8532C16.6056 54.8989 16.8533 53.8884 17.4677 52.8216C17.8291 52.1941 18.2728 51.6558 18.7989 51.2067C19.3196 50.7378 19.8767 50.4236 20.47 50.2639L21.2503 51.3902C20.7019 51.559 20.1988 51.8375 19.7412 52.2258C19.2783 52.5942 18.9095 53.0169 18.6349 53.4939C18.2301 54.1967 18.061 54.8095 18.1274 55.3325C18.1939 55.8555 18.4531 56.2471 18.9049 56.5073C19.6077 56.9121 20.3269 56.7079 21.0626 55.8949L22.4069 54.3878C23.0452 53.6857 23.6782 53.2397 24.3057 53.0496C24.9208 52.8523 25.5546 52.9416 26.2072 53.3174C27.048 53.8017 27.5217 54.5174 27.628 55.4644C27.7218 56.4042 27.4507 57.4264 26.8147 58.5308Z" fill="#EEEDF2"/>
<path d="M36.3249 45.0606C35.5312 46.0205 34.6848 46.5327 33.7857 46.5974C32.8754 46.6529 31.9404 46.2838 30.9804 45.4901L26.7111 41.9602L25.396 43.5507L24.3412 42.6786L25.6563 41.0881L23.1617 39.0255L24.2829 37.6693L26.7776 39.7319L28.9094 37.1536L29.9642 38.0257L27.8324 40.604L31.9678 44.0232C32.604 44.5492 33.2003 44.8167 33.7566 44.8257C34.3018 44.8255 34.8235 44.524 35.3219 43.9212C35.4695 43.7426 35.5949 43.5456 35.6979 43.3301C35.8009 43.1146 35.8901 42.9158 35.9654 42.7338L37.1972 43.3577C37.1554 43.5674 37.0526 43.8394 36.8889 44.1739C36.7251 44.5083 36.5371 44.8038 36.3249 45.0606Z" fill="#EEEDF2"/>
<path d="M40.7619 40.3177C40.2443 40.8241 39.6823 41.1816 39.0757 41.39C38.4694 41.578 37.8751 41.6125 37.2926 41.4935C36.7101 41.3745 36.2062 41.0976 35.7808 40.6628C35.244 40.1142 34.9583 39.5426 34.9238 38.9483C34.8997 38.3437 35.1479 37.6552 35.6684 36.8825C36.1891 36.0893 37.0188 35.1357 38.1575 34.0215L38.6544 33.5353L38.1834 33.054C37.5555 32.4122 36.9702 32.0832 36.4275 32.067C35.8851 32.0304 35.3241 32.2957 34.7444 32.8629C34.2889 33.3085 33.9148 33.8063 33.622 34.3561C33.3191 34.8956 33.0869 35.5281 32.9254 36.2535L31.5942 35.7627C31.7141 35.0983 31.9726 34.4098 32.3695 33.6973C32.7768 32.9746 33.2392 32.36 33.7568 31.8536C34.7299 30.9015 35.6823 30.4356 36.6141 30.456C37.5562 30.4663 38.5185 30.9735 39.5009 31.9776L44.15 36.7291L42.9699 37.8838L41.6937 36.5795C41.9325 37.217 41.9715 37.8678 41.8106 38.5317C41.6601 39.1855 41.3106 39.7809 40.7619 40.3177ZM40.037 39.173C40.6581 38.5653 40.9577 37.8567 40.9358 37.0474C40.9038 36.2278 40.5637 35.4867 39.9154 34.8241L39.4596 34.3583L38.9783 34.8293C38.1398 35.6497 37.5178 36.3394 37.1123 36.8982C36.707 37.4366 36.5022 37.9003 36.498 38.2895C36.4939 38.6581 36.654 39.0081 36.9781 39.3393C37.3934 39.7638 37.8776 39.9688 38.4308 39.9543C38.9944 39.9297 39.5298 39.6693 40.037 39.173Z" fill="#EEEDF2"/>
<path d="M48.3763 33.5711C47.5429 34.2449 46.7164 34.5127 45.8969 34.3745C45.0796 34.2159 44.293 33.6692 43.5372 32.7345L36.1066 23.5448L37.4749 22.4384L44.8236 31.5268C45.7979 32.7318 46.7637 32.9473 47.721 32.1733C48.0025 31.9456 48.2286 31.7069 48.3992 31.4572L49.2942 32.6333C49.0089 32.9944 48.7029 33.307 48.3763 33.5711Z" fill="#EEEDF2"/>
<path d="M50.511 31.5825L42.1007 18.7828L43.5713 17.8165L48.7606 25.7142L48.7969 25.6904L50.3052 19.0846L52.1752 17.8559L50.5367 25.0151L58.3542 26.429L56.4842 27.6577L49.298 26.4529L49.2617 26.4767L51.9816 30.6162L50.511 31.5825Z" fill="#EEEDF2"/>
<path d="M67.2555 22.0089L59.897 13.4776L61.6283 12.8354L67.3729 19.7642L67.3109 10.7274L68.7163 10.2061L74.5296 17.1326L74.399 8.09813L76.0488 7.48614L76.0138 18.7601L74.4454 19.3418L68.8066 12.6982L68.8442 21.4196L67.2555 22.0089Z" fill="#EEEDF2"/>
<path d="M77.2104 4.89066L76.7589 2.96602L78.8738 2.46983L79.3254 4.39447L77.2104 4.89066ZM80.4337 17.679L78.0223 7.40018L79.7354 6.99827L82.1469 17.2771L80.4337 17.679Z" fill="#EEEDF2"/>
<path d="M89.3065 16.1557C88.0765 16.3515 87.1027 16.1765 86.3853 15.6308C85.6655 15.0707 85.2077 14.1757 85.012 12.9457L84.1411 7.47491L82.103 7.79933L81.8879 6.44773L83.926 6.1233L83.4172 2.92665L85.1549 2.65003L85.6638 5.84668L88.9677 5.32077L89.1828 6.67238L85.8789 7.19829L86.7224 12.4974C86.8522 13.3127 87.1228 13.9075 87.5344 14.282C87.9437 14.6421 88.5345 14.7607 89.3069 14.6378C89.5357 14.6013 89.76 14.5363 89.9797 14.4427C90.1995 14.349 90.3978 14.2588 90.5746 14.172L91.0867 15.4544C90.9167 15.5841 90.6597 15.7203 90.3158 15.863C89.9719 16.0058 89.6355 16.1033 89.3065 16.1557Z" fill="#EEEDF2"/>
<path d="M92.1332 15.5036L91.3652 0.207376L93.1227 0.119141L93.4484 6.60649C93.7636 5.95262 94.2242 5.45096 94.8302 5.10151C95.4499 4.73687 96.1503 4.53495 96.9314 4.49573C99.4338 4.3701 100.755 5.69587 100.894 8.47306L101.224 15.0472L99.4667 15.1354L99.1421 8.66978C99.0927 7.68619 98.8615 6.98 98.4485 6.55121C98.0492 6.10723 97.43 5.9063 96.5911 5.94842C95.622 5.99707 94.8633 6.33968 94.3153 6.97624C93.7809 7.59761 93.5388 8.40732 93.5889 9.40537L93.8907 15.4154L92.1332 15.5036Z" fill="#EEEDF2"/>
<path d="M113.958 16.2972C112.941 16.1434 112.094 15.7882 111.417 15.2316C110.739 14.675 110.254 13.9643 109.96 13.0996C109.682 12.2227 109.627 11.2329 109.794 10.1303C109.961 9.02767 110.305 8.10575 110.828 7.36452C111.366 6.61113 112.042 6.06883 112.853 5.7376C113.665 5.40637 114.58 5.31768 115.596 5.47153C116.599 5.62322 117.438 5.97736 118.116 6.53395C118.808 7.09271 119.292 7.81054 119.57 8.68744C119.864 9.55218 119.927 10.5359 119.76 11.6385C119.594 12.7411 119.241 13.6691 118.702 14.4225C118.18 15.1637 117.505 15.6989 116.679 16.0279C115.867 16.3592 114.96 16.4489 113.958 16.2972ZM114.169 14.9011C115.143 15.0484 115.975 14.8228 116.667 14.2243C117.36 13.6115 117.804 12.6607 117.999 11.3719C118.196 10.0689 118.053 9.02921 117.57 8.25302C117.087 7.47683 116.359 7.01506 115.385 6.8677C114.397 6.71818 113.557 6.94268 112.866 7.54118C112.189 8.14185 111.752 9.09373 111.555 10.3968C111.36 11.6856 111.496 12.7242 111.963 13.5125C112.446 14.2887 113.181 14.7516 114.169 14.9011Z" fill="#EEEDF2"/>
<path d="M124.525 18.5652C122.092 17.856 121.267 16.1597 122.049 13.4762L123.884 7.17752L125.574 7.66987L123.744 13.9477C123.481 14.8514 123.467 15.5715 123.703 16.1079C123.953 16.6484 124.474 17.0341 125.266 17.265C126.129 17.5163 126.914 17.4359 127.622 17.0239C128.335 16.5979 128.831 15.9052 129.11 14.9458L130.788 9.18947L132.477 9.68182L129.523 19.818L127.876 19.3379L128.374 17.6276C127.876 18.1462 127.286 18.4873 126.605 18.6508C125.942 18.8044 125.249 18.7759 124.525 18.5652Z" fill="#EEEDF2"/>
<path d="M131.689 20.6906L135.729 10.9362L137.314 11.5929L136.591 13.3391C137.601 12.3777 138.94 12.1721 140.609 12.7223L141.216 12.9032L140.754 14.358L139.681 14.0545C138.724 13.7523 137.9 13.7558 137.208 14.0647C136.521 14.3603 135.997 14.9429 135.637 15.8127L133.335 21.3722L131.689 20.6906Z" fill="#EEEDF2"/>
<path d="M147.19 28.7377C145.782 27.8488 144.926 26.7351 144.624 25.3966C144.329 24.0459 144.63 22.6602 145.526 21.2395C146.106 20.3209 146.8 19.6285 147.608 19.1623C148.424 18.6838 149.27 18.4557 150.146 18.478C151.043 18.4958 151.913 18.7713 152.759 19.3047C153.971 20.0699 154.673 21.0609 154.864 22.2776C155.063 23.482 154.733 24.764 153.875 26.1235L153.516 26.693L146.792 22.4494C146.199 23.4968 146.003 24.4601 146.201 25.3391C146.408 26.2058 146.989 26.9407 147.944 27.5436C148.483 27.8837 149.048 28.1287 149.638 28.2787C150.236 28.4164 150.875 28.4346 151.556 28.3332L151.41 29.705C150.766 29.8296 150.062 29.805 149.298 29.6312C148.542 29.4452 147.84 29.1474 147.19 28.7377ZM152.1 20.4301C151.255 19.8968 150.421 19.7388 149.599 19.9563C148.776 20.1737 148.052 20.6841 147.425 21.4873L152.844 24.9077C153.38 23.9782 153.585 23.1232 153.461 22.3428C153.35 21.5701 152.896 20.9326 152.1 20.4301Z" fill="#EEEDF2"/>
<path d="M151.261 31.0366L158.112 29.6055L158.16 23.0407L159.772 24.3637L159.673 29.3129L164.525 28.264L166.12 29.5732L159.691 30.901L159.624 37.8999L158.011 36.5769L158.085 31.2135L152.873 32.3597L151.261 31.0366Z" fill="#EEEDF2"/>
<path d="M157.638 41.4117L168.198 31.5211L169.371 32.7736L167.992 34.0657C168.685 33.8527 169.377 33.8497 170.067 34.0567C170.777 34.2644 171.42 34.6748 171.994 35.2878C172.638 35.9749 173.033 36.7256 173.181 37.5399C173.349 38.3548 173.26 39.1819 172.915 40.021C172.59 40.8608 172.016 41.6669 171.191 42.4391C170.377 43.2015 169.536 43.7221 168.666 44.001C167.816 44.2807 166.985 44.3149 166.173 44.1039C165.37 43.9035 164.646 43.4597 164.003 42.7726C163.449 42.1807 163.086 41.5284 162.914 40.8158C162.743 40.1032 162.786 39.4181 163.043 38.7605L158.841 42.696L157.638 41.4117ZM164.781 41.5378C165.454 42.2566 166.248 42.595 167.161 42.5532C168.085 42.5014 169.022 42.03 169.974 41.139C170.936 40.238 171.467 39.3333 171.569 38.4247C171.67 37.5161 171.384 36.7024 170.711 35.9836C170.038 35.2648 169.244 34.9264 168.331 34.9682C167.418 35.01 166.48 35.4814 165.518 36.3824C164.567 37.2734 164.035 38.1782 163.923 39.0967C163.822 40.0053 164.108 40.819 164.781 41.5378Z" fill="#EEEDF2"/>
<path d="M171.191 51.6335C170.221 50.2795 169.848 48.9256 170.072 47.5716C170.307 46.2093 171.108 45.039 172.474 44.0607C173.357 43.4282 174.26 43.0481 175.184 42.9206C176.12 42.7847 176.99 42.8921 177.794 43.2429C178.617 43.5971 179.32 44.1803 179.902 44.9927C180.737 46.1583 181.014 47.3407 180.733 48.5398C180.463 49.7304 179.675 50.7938 178.368 51.73L177.821 52.1221L173.19 45.6583C172.247 46.4054 171.702 47.2235 171.555 48.1126C171.42 48.9933 171.681 49.8928 172.339 50.8112C172.71 51.3293 173.141 51.7689 173.631 52.1303C174.133 52.4831 174.718 52.7408 175.387 52.9032L174.735 54.1188C174.091 53.9917 173.449 53.7038 172.807 53.2552C172.176 52.7981 171.638 52.2575 171.191 51.6335ZM178.868 45.7871C178.286 44.9747 177.573 44.5143 176.729 44.406C175.886 44.2977 175.022 44.4975 174.139 45.0055L177.871 50.2154C178.717 49.556 179.229 48.8415 179.409 48.0718C179.596 47.314 179.416 46.5524 178.868 45.7871Z" fill="#EEEDF2"/>
<path d="M174.731 56.6246L183.919 51.4229L184.764 52.9164L183.119 53.8476C184.507 53.7112 185.689 54.3734 186.666 55.8341L187.033 56.3502L185.774 57.2129L185.114 56.313C184.546 55.4862 183.895 54.9815 183.159 54.7989C182.436 54.6092 181.664 54.7462 180.845 55.21L175.609 58.1748L174.731 56.6246Z" fill="#EEEDF2"/>
<path d="M179.966 67.2813C179.451 66.1473 179.362 65.162 179.698 64.3255C180.047 63.483 180.789 62.8043 181.923 62.2893L186.967 59.9989L186.113 58.1198L187.359 57.5539L188.213 59.433L191.16 58.0947L191.888 59.6969L188.94 61.0352L190.324 64.0814L189.077 64.6473L187.694 61.6011L182.808 63.8197C182.057 64.161 181.555 64.5797 181.303 65.0758C181.064 65.566 181.107 66.1671 181.43 66.8792C181.526 67.0902 181.648 67.2892 181.797 67.4762C181.945 67.6632 182.085 67.8305 182.215 67.978L181.115 68.8118C180.945 68.6823 180.745 68.4706 180.516 68.1769C180.287 67.8832 180.104 67.5846 179.966 67.2813Z" fill="#EEEDF2"/>
<path d="M182.285 73.3741C182.021 72.5919 181.881 71.8138 181.865 71.0398C181.848 70.2659 181.963 69.5854 182.208 68.9983L183.562 69.138C183.33 69.7663 183.218 70.4078 183.225 71.0627C183.25 71.7267 183.367 72.3675 183.575 72.9851C183.839 73.7673 184.182 74.3089 184.604 74.6097C185.026 74.9106 185.484 74.9777 185.979 74.8112C186.363 74.6817 186.621 74.4495 186.753 74.1147C186.898 73.7753 186.938 73.3035 186.871 72.6992L186.652 70.687C186.449 68.8604 187.04 67.7134 188.426 67.2461C189.332 66.9408 190.18 67.0524 190.969 67.581C191.763 68.1234 192.357 68.9778 192.75 70.1443C192.981 70.8306 193.091 71.5194 193.08 72.211C193.087 72.9117 192.954 73.5373 192.681 74.0879L191.32 73.9276C191.557 73.4047 191.681 72.8432 191.692 72.2432C191.723 71.6523 191.65 71.0961 191.474 70.5746C191.215 69.806 190.867 69.2737 190.431 68.9774C189.995 68.6812 189.53 68.6164 189.036 68.7829C188.267 69.042 187.944 69.7163 188.067 70.8059L188.308 72.8111C188.411 73.7542 188.327 74.5239 188.054 75.1202C187.795 75.7119 187.309 76.128 186.595 76.3686C185.676 76.6785 184.826 76.56 184.045 76.0131C183.279 75.4615 182.692 74.5818 182.285 73.3741Z" fill="#EEEDF2"/>
<path d="M190.835 86.2315L192.285 86.0988L192.839 92.1562L191.39 92.2889L190.835 86.2315Z" fill="#EEEDF2"/>
</svg>