<svg width="203" height="202" viewBox="0 0 203 202" fill="none" xmlns="http://www.w3.org/2000/svg">
<circle cx="101.199" cy="101" r="66.9998" fill="#AFF143"/>
<path d="M132.972 115.748C132.93 114.728 132.846 113.749 132.805 112.811V89.6406C132.805 85.9692 132.174 82.9507 131.377 82.9507C131.377 82.7877 131.167 82.6243 130.789 82.5837C119.154 81.8903 107.435 81.5229 95.7165 81.5229H74.2952C72.6151 81.5229 71.229 82.1348 71.229 82.9098C71.0611 82.9098 70.8929 83.3177 70.8511 84.1745C70.6411 90.4973 70.305 96.8202 70.1371 103.184C70.0531 106.366 70.011 109.548 70.0531 112.729C70.0531 114.32 70.1792 115.952 70.1371 117.42V118.277C70.1371 118.604 70.221 118.93 70.3892 119.216C70.5571 119.501 70.8514 119.705 71.1871 119.827C71.355 119.909 71.5232 119.95 71.6911 120.031L72.0272 120.154C72.2372 120.235 72.3633 120.276 72.5733 120.399C72.8254 120.48 73.0354 120.603 73.2872 120.644C73.4973 120.684 73.7494 120.766 74.0012 120.807L74.6734 120.929C76.4795 121.133 78.1596 121.051 79.7976 120.97C81.4356 120.847 83.0739 120.684 84.6279 120.644L94.4145 120.725C100.967 120.766 107.519 120.766 114.072 120.807H121.59H122.262L122.976 120.847C123.942 120.929 124.95 121.051 125.959 121.133C126.966 121.215 128.017 121.255 129.109 121.255C129.403 121.255 129.655 121.255 129.949 121.215C130.075 121.215 130.243 121.174 130.411 121.174C130.579 121.133 130.705 121.133 130.915 121.051L131.587 120.766C131.797 120.643 132.007 120.521 132.175 120.358C132.301 120.154 132.511 119.991 132.595 119.787C132.721 119.583 132.847 119.379 132.889 119.134C132.931 118.93 132.973 118.767 133.015 118.645C133.057 118.481 133.057 118.318 133.099 118.196C133.141 117.91 133.141 117.625 133.141 117.38C132.972 116.768 132.972 116.278 132.972 115.748L132.972 115.748ZM123.018 118.032L122.22 117.951C121.968 117.91 121.59 117.91 121.38 117.91H113.861C107.309 117.951 100.757 117.951 94.2042 117.991L89.29 118.032L86.8538 118.073H84.3336C82.6114 118.155 81.0156 118.4 79.3772 118.522C77.7811 118.685 76.1849 118.767 74.7148 118.644L74.5048 118.604C74.6727 118.481 74.8409 118.4 75.0088 118.277L93.5739 105.183C94.4979 106.08 95.4219 106.977 96.388 107.834C96.9759 108.324 97.6059 108.813 98.2781 109.303C98.6142 109.548 98.9921 109.752 99.4121 109.956C99.6221 110.078 99.8743 110.16 100.126 110.241L100.336 110.282L100.63 110.364L101.176 110.405C101.47 110.364 101.764 110.323 102.016 110.201C102.142 110.16 102.31 110.119 102.394 110.037L102.688 109.874C102.982 109.67 103.276 109.467 103.528 109.263C104.032 108.855 104.494 108.447 104.914 107.998L106.174 106.733C106.384 106.529 106.594 106.325 106.72 106.203L107.393 105.632L108.401 104.775C110.669 106.284 112.937 107.834 115.205 109.344C119.783 112.403 124.403 115.381 129.066 118.359C128.94 118.359 128.814 118.359 128.688 118.4C127.806 118.441 126.84 118.359 125.874 118.277C124.992 118.236 124.026 118.155 123.018 118.032L123.018 118.032ZM71.4387 83.5625C71.9427 84.052 72.9927 84.3784 74.211 84.3784H95.6323C107.351 84.3784 119.07 84.0114 130.704 83.3176H130.83C130.243 84.215 129.823 86.7035 129.823 89.6405V101.266L129.822 107.1V113.015C129.864 114.035 129.948 114.973 129.99 115.911C129.99 116.36 130.032 116.85 129.99 117.258C129.99 117.462 129.948 117.666 129.948 117.87V117.992C125.538 114.525 121.044 111.139 116.549 107.753C114.533 106.244 112.517 104.734 110.459 103.266L127.512 89.1924C129.108 87.8871 129.99 86.3369 129.444 85.7659C128.94 85.1949 127.218 85.7659 125.622 87.0712L105.671 103.551L104.998 104.122C104.704 104.367 104.494 104.611 104.242 104.815L102.982 106.039C102.562 106.447 102.142 106.814 101.764 107.14C101.554 107.303 101.386 107.467 101.176 107.589L101.092 107.63H101.05C100.966 107.589 100.84 107.548 100.714 107.508C100.462 107.385 100.168 107.222 99.9164 107.059C99.3703 106.692 98.7824 106.284 98.2363 105.835C97.1441 104.938 96.0522 103.958 95.0021 102.979L91.8519 99.92C90.8019 98.9002 89.794 97.8395 88.5339 96.8197C83.9136 93.1074 79.2513 89.4362 74.589 85.8464C73.8329 85.2755 73.4129 85.7649 74.0851 86.3768C78.369 90.4154 82.6956 94.4537 87.1059 98.4106C88.1138 99.308 89.0799 100.45 90.0882 101.511C90.5921 102.041 91.0961 102.612 91.6422 103.143L73.3711 116.033C72.9511 116.319 72.5732 116.645 72.2371 116.971C72.195 115.462 72.0692 114.116 72.0271 112.688C71.8592 109.547 71.775 106.365 71.7331 103.224C71.6489 96.8604 71.6489 90.5372 71.5228 84.2143C71.481 83.9288 71.481 83.7249 71.4389 83.5618L71.4387 83.5625Z" fill="#1C1C1C"/>
</svg>