<svg width="16" height="18" viewBox="0 0 16 18" fill="none" xmlns="http://www.w3.org/2000/svg">
<path d="M15.7926 6.69676C15.5161 6.42111 15.0695 6.42111 14.793 6.69676L6.26388 15.2418C5.15786 16.3444 3.37122 16.3444 2.24393 15.2418C1.13792 14.1392 1.13792 12.3369 2.24393 11.2343L11.0282 2.43483C11.7089 1.75631 12.8362 1.75631 13.5381 2.43483C14.2399 3.13455 14.2399 4.23714 13.5381 4.93686L6.26388 12.2097C5.98737 12.4853 5.54071 12.4853 5.26421 12.2097C4.9877 11.9341 4.9877 11.4888 5.26421 11.2131L8.77368 7.71453C9.05018 7.43888 9.05018 6.99361 8.77368 6.71796C8.49717 6.44231 8.05052 6.44231 7.77401 6.71796L4.26454 10.1954C3.43503 11.0223 3.43503 12.3581 4.26454 13.1851C5.09405 14.012 6.43403 14.012 7.26354 13.1851L14.5377 5.93343C15.7926 4.68241 15.7926 2.66807 14.5377 1.43826C13.2828 0.187247 11.2622 0.187247 10.0286 1.43826L1.24427 10.259C-0.414756 11.9128 -0.414756 14.6057 1.24427 16.2596C2.90329 17.9135 5.60452 17.9135 7.26354 16.2596L15.7926 7.71453C16.0691 7.41768 16.0691 6.9724 15.7926 6.69676Z" fill="black"/>
</svg>
