<svg width="378" height="430" viewBox="0 0 378 430" fill="none" xmlns="http://www.w3.org/2000/svg">
<path d="M55.8863 3.45608L365.988 177.588C381.074 186.058 381.446 207.642 366.663 216.628L22.1484 426.048C6.29477 435.685 -13.7784 423.183 -12.1205 404.704L22.2916 21.1527C23.7573 4.81547 41.584 -4.57506 55.8863 3.45608Z" stroke="url(#paint0_radial_457_1213)" stroke-width="0.91379"/>
<path d="M59.9774 19.7474L351.495 183.443C365.676 191.407 366.027 211.696 352.129 220.144L28.2615 417.014C13.3579 426.073 -5.51227 414.32 -3.95374 396.949L28.3961 36.3835C29.774 21.0254 46.5323 12.1976 59.9774 19.7474Z" stroke="url(#paint1_radial_457_1213)" stroke-width="0.91379"/>
<path d="M64.0334 35.8984L337.127 189.249C350.412 196.709 350.74 215.716 337.721 223.63L34.3218 408.058C20.3602 416.544 2.68264 405.534 4.14268 389.261L34.4479 51.4831C35.7388 37.0956 51.438 28.8257 64.0334 35.8984Z" stroke="url(#paint2_radial_457_1213)" stroke-width="0.91379"/>
<path d="M68.2139 52.5457L322.317 195.232C334.679 202.174 334.984 219.859 322.87 227.223L40.5684 398.826C27.5776 406.723 11.1293 396.478 12.4878 381.336L40.6857 67.0466C41.8868 53.6596 56.4943 45.9648 68.2139 52.5457Z" stroke="url(#paint3_radial_457_1213)" stroke-width="0.91379"/>
<path d="M72.167 68.2871L308.313 200.89C319.801 207.341 320.085 223.777 308.827 230.62L46.4752 390.096C34.4024 397.435 19.1164 387.914 20.3789 373.843L46.5842 81.7633C47.7004 69.3223 61.2757 62.1713 72.167 68.2871Z" stroke="url(#paint4_radial_457_1213)" stroke-width="0.91379"/>
<path d="M76.9776 87.4436L291.272 207.776C301.696 213.63 301.954 228.545 291.738 234.755L53.6633 379.473C42.7077 386.133 28.8363 377.493 29.982 364.724L53.7622 99.6727C54.7751 88.383 67.0942 81.8937 76.9776 87.4436Z" stroke="url(#paint5_radial_457_1213)" stroke-width="0.91379"/>
<path d="M81.3218 104.742L275.882 213.994C285.347 219.309 285.581 232.85 276.305 238.488L60.1543 369.88C50.2076 375.927 37.6135 368.083 38.6536 356.489L60.2441 115.845C61.1638 105.595 72.3484 99.7034 81.3218 104.742Z" stroke="url(#paint6_radial_457_1213)" stroke-width="0.91379"/>
<path d="M85.8715 122.86L259.765 220.506C268.224 225.256 268.433 237.359 260.143 242.399L66.9525 359.833C58.0624 365.237 46.8061 358.227 47.7358 347.864L67.0328 132.783C67.8548 123.622 77.8513 118.356 85.8715 122.86Z" stroke="url(#paint7_radial_457_1213)" stroke-width="0.91379"/>
<path d="M89.3362 136.656L247.491 225.465C255.185 229.785 255.375 240.793 247.835 245.376L72.1295 352.182C64.044 357.097 53.8065 350.721 54.6521 341.297L72.2026 145.682C72.9501 137.35 82.0419 132.56 89.3362 136.656Z" stroke="url(#paint8_radial_457_1213)" stroke-width="0.91379"/>
<path d="M92.9621 151.095L234.646 230.655C241.539 234.525 241.709 244.386 234.954 248.492L77.5474 344.175C70.3039 348.579 61.1326 342.866 61.8901 334.423L77.6128 159.181C78.2825 151.716 86.4275 147.426 92.9621 151.095Z" stroke="url(#paint9_radial_457_1213)" stroke-width="0.91379"/>
<defs>
<radialGradient id="paint0_radial_457_1213" cx="0" cy="0" r="1" gradientUnits="userSpaceOnUse" gradientTransform="translate(-13.8266 398.862) rotate(-59.8129) scale(413.066 419.632)">
<stop stop-color="#F1D543"/>
<stop offset="0.40625" stop-color="#419244" stop-opacity="0.59375"/>
<stop offset="0.744792" stop-color="#8366BF" stop-opacity="0.11"/>
<stop offset="1" stop-opacity="0"/>
</radialGradient>
<radialGradient id="paint1_radial_457_1213" cx="0" cy="0" r="1" gradientUnits="userSpaceOnUse" gradientTransform="translate(-13.8266 398.862) rotate(-59.8129) scale(413.066 419.632)">
<stop stop-color="#F1D543"/>
<stop offset="0.40625" stop-color="#419244" stop-opacity="0.59375"/>
<stop offset="0.744792" stop-color="#8366BF" stop-opacity="0.11"/>
<stop offset="1" stop-opacity="0"/>
</radialGradient>
<radialGradient id="paint2_radial_457_1213" cx="0" cy="0" r="1" gradientUnits="userSpaceOnUse" gradientTransform="translate(-13.8266 398.862) rotate(-59.8129) scale(413.066 419.632)">
<stop stop-color="#F1D543"/>
<stop offset="0.40625" stop-color="#419244" stop-opacity="0.59375"/>
<stop offset="0.744792" stop-color="#8366BF" stop-opacity="0.11"/>
<stop offset="1" stop-opacity="0"/>
</radialGradient>
<radialGradient id="paint3_radial_457_1213" cx="0" cy="0" r="1" gradientUnits="userSpaceOnUse" gradientTransform="translate(-13.8266 398.862) rotate(-59.8129) scale(413.066 419.632)">
<stop stop-color="#F1D543"/>
<stop offset="0.40625" stop-color="#419244" stop-opacity="0.59375"/>
<stop offset="0.744792" stop-color="#8366BF" stop-opacity="0.11"/>
<stop offset="1" stop-opacity="0"/>
</radialGradient>
<radialGradient id="paint4_radial_457_1213" cx="0" cy="0" r="1" gradientUnits="userSpaceOnUse" gradientTransform="translate(-13.8266 398.862) rotate(-59.8129) scale(413.066 419.632)">
<stop stop-color="#F1D543"/>
<stop offset="0.40625" stop-color="#419244" stop-opacity="0.59375"/>
<stop offset="0.744792" stop-color="#8366BF" stop-opacity="0.11"/>
<stop offset="1" stop-opacity="0"/>
</radialGradient>
<radialGradient id="paint5_radial_457_1213" cx="0" cy="0" r="1" gradientUnits="userSpaceOnUse" gradientTransform="translate(-13.8266 398.862) rotate(-59.8129) scale(413.066 419.632)">
<stop stop-color="#F1D543"/>
<stop offset="0.40625" stop-color="#419244" stop-opacity="0.59375"/>
<stop offset="0.744792" stop-color="#8366BF" stop-opacity="0.11"/>
<stop offset="1" stop-opacity="0"/>
</radialGradient>
<radialGradient id="paint6_radial_457_1213" cx="0" cy="0" r="1" gradientUnits="userSpaceOnUse" gradientTransform="translate(-13.8266 398.862) rotate(-59.8129) scale(413.066 419.632)">
<stop stop-color="#F1D543"/>
<stop offset="0.40625" stop-color="#419244" stop-opacity="0.59375"/>
<stop offset="0.744792" stop-color="#8366BF" stop-opacity="0.11"/>
<stop offset="1" stop-opacity="0"/>
</radialGradient>
<radialGradient id="paint7_radial_457_1213" cx="0" cy="0" r="1" gradientUnits="userSpaceOnUse" gradientTransform="translate(-13.8266 398.862) rotate(-59.8129) scale(413.066 419.632)">
<stop stop-color="#F1D543"/>
<stop offset="0.40625" stop-color="#419244" stop-opacity="0.59375"/>
<stop offset="0.744792" stop-color="#8366BF" stop-opacity="0.11"/>
<stop offset="1" stop-opacity="0"/>
</radialGradient>
<radialGradient id="paint8_radial_457_1213" cx="0" cy="0" r="1" gradientUnits="userSpaceOnUse" gradientTransform="translate(-13.8266 398.862) rotate(-59.8129) scale(413.066 419.632)">
<stop stop-color="#F1D543"/>
<stop offset="0.40625" stop-color="#419244" stop-opacity="0.59375"/>
<stop offset="0.744792" stop-color="#8366BF" stop-opacity="0.11"/>
<stop offset="1" stop-opacity="0"/>
</radialGradient>
<radialGradient id="paint9_radial_457_1213" cx="0" cy="0" r="1" gradientUnits="userSpaceOnUse" gradientTransform="translate(-13.8266 398.862) rotate(-59.8129) scale(413.066 419.632)">
<stop stop-color="#F1D543"/>
<stop offset="0.40625" stop-color="#419244" stop-opacity="0.59375"/>
<stop offset="0.744792" stop-color="#8366BF" stop-opacity="0.11"/>
<stop offset="1" stop-opacity="0"/>
</radialGradient>
</defs>
</svg>
