<svg width="194" height="194" viewBox="0 0 194 194" fill="none" xmlns="http://www.w3.org/2000/svg">
<circle cx="97.55" cy="97.2688" r="72.5329" fill="#AFF143"/>
<path d="M131.947 113.235C131.901 112.131 131.81 111.071 131.765 110.055V84.9716C131.765 80.9971 131.083 77.7293 130.219 77.7293C130.219 77.5527 129.992 77.3759 129.583 77.3319C116.987 76.5813 104.301 76.1836 91.6144 76.1836H68.424C66.6052 76.1836 65.1046 76.846 65.1046 77.6849C64.9228 77.6849 64.7407 78.1265 64.6954 79.0541C64.4681 85.8991 64.1042 92.7441 63.9225 99.6333C63.8316 103.078 63.786 106.523 63.8316 109.967C63.8316 111.689 63.9681 113.456 63.9225 115.046V115.973C63.9225 116.327 64.0134 116.68 64.1954 116.989C64.3772 117.298 64.6957 117.519 65.0592 117.651C65.241 117.74 65.4231 117.784 65.6048 117.872L65.9687 118.005C66.196 118.093 66.3325 118.137 66.5599 118.27C66.8328 118.358 67.0602 118.491 67.3328 118.535C67.5601 118.579 67.8331 118.667 68.1057 118.711L68.8334 118.844C70.7887 119.065 72.6076 118.977 74.3808 118.888C76.154 118.756 77.9276 118.579 79.61 118.535L90.2048 118.623C97.2985 118.667 104.392 118.667 111.485 118.711H119.625H120.352L121.125 118.756C122.171 118.844 123.262 118.976 124.354 119.065C125.445 119.153 126.582 119.197 127.764 119.197C128.082 119.197 128.355 119.197 128.674 119.153C128.81 119.153 128.992 119.109 129.174 119.109C129.356 119.064 129.492 119.064 129.72 118.976L130.447 118.667C130.675 118.535 130.902 118.402 131.084 118.226C131.22 118.005 131.448 117.828 131.538 117.607C131.675 117.387 131.811 117.166 131.857 116.901C131.902 116.68 131.948 116.503 131.993 116.371C132.039 116.194 132.039 116.017 132.084 115.885C132.13 115.576 132.13 115.267 132.13 115.002C131.947 114.339 131.947 113.809 131.947 113.235L131.947 113.235ZM121.17 115.708L120.306 115.62C120.034 115.575 119.624 115.575 119.397 115.575H111.258C104.164 115.62 97.0707 115.62 89.9772 115.664L84.6571 115.708L82.0197 115.752H79.2914C77.4269 115.841 75.6993 116.106 73.9257 116.238C72.1977 116.415 70.4698 116.503 68.8783 116.371L68.6509 116.326C68.8327 116.194 69.0147 116.106 69.1965 115.973L89.2948 101.797C90.2951 102.769 91.2954 103.74 92.3413 104.668C92.9778 105.198 93.6598 105.727 94.3875 106.258C94.7513 106.523 95.1604 106.744 95.6152 106.964C95.8425 107.097 96.1155 107.185 96.3881 107.273L96.6154 107.318L96.9337 107.406L97.5249 107.45C97.8431 107.406 98.1614 107.362 98.4343 107.23C98.5708 107.185 98.7525 107.141 98.8434 107.053L99.1617 106.876C99.4799 106.656 99.7981 106.435 100.071 106.214C100.617 105.772 101.117 105.331 101.572 104.845L102.936 103.476C103.163 103.255 103.391 103.034 103.527 102.902L104.255 102.283L105.346 101.356C107.801 102.99 110.257 104.668 112.712 106.302C117.668 109.614 122.67 112.838 127.718 116.062C127.581 116.062 127.445 116.062 127.309 116.106C126.353 116.15 125.308 116.062 124.262 115.973C123.308 115.929 122.262 115.84 121.17 115.708L121.17 115.708ZM65.3316 78.3916C65.8772 78.9215 67.0139 79.2748 68.3328 79.2748H91.5232C104.21 79.2748 116.896 78.8775 129.492 78.1265H129.628C128.992 79.098 128.537 81.792 128.537 84.9715V97.5575L128.537 103.873V110.276C128.582 111.38 128.673 112.396 128.718 113.412C128.718 113.898 128.764 114.428 128.718 114.869C128.718 115.09 128.673 115.311 128.673 115.532V115.664C123.898 111.911 119.033 108.245 114.168 104.58C111.985 102.946 109.802 101.312 107.574 99.7221L126.036 84.4864C127.764 83.0733 128.718 81.3951 128.127 80.777C127.582 80.1588 125.717 80.777 123.989 82.1901L102.39 100.031L101.663 100.649C101.345 100.914 101.117 101.179 100.844 101.399L99.4801 102.724C99.0254 103.166 98.5707 103.563 98.1616 103.916C97.9343 104.093 97.7525 104.27 97.5251 104.402L97.4343 104.447H97.3887C97.2978 104.402 97.1613 104.358 97.0248 104.314C96.7519 104.182 96.4337 104.005 96.161 103.828C95.5699 103.431 94.9334 102.989 94.3422 102.503C93.1598 101.532 91.9778 100.472 90.841 99.4121L87.4306 96.1C86.2939 94.9959 85.2027 93.8476 83.8386 92.7436C78.8367 88.7247 73.7894 84.7503 68.7421 80.8641C67.9235 80.246 67.4688 80.7759 68.1965 81.4383C72.8342 85.8104 77.5181 90.1823 82.2926 94.4659C83.3837 95.4374 84.4297 96.674 85.5212 97.8223C86.0668 98.3965 86.6124 99.0146 87.2036 99.5888L67.4236 113.544C66.9689 113.853 66.5598 114.206 66.1959 114.56C66.1503 112.926 66.0142 111.468 65.9686 109.923C65.7868 106.522 65.6956 103.078 65.6503 99.6772C65.5591 92.7876 65.5591 85.9422 65.4227 79.0972C65.3774 78.7882 65.3774 78.5673 65.3318 78.3908L65.3316 78.3916Z" fill="#1C1C1C"/>
<path d="M184.847 100.64C184.879 99.8887 185.004 99.2263 185.223 98.6524C185.45 98.0873 185.744 97.6139 186.107 97.2321L187.088 97.7174C186.743 98.0831 186.476 98.4986 186.287 98.9639C186.106 99.4379 186.003 99.9829 185.977 100.599C185.944 101.367 186.047 101.933 186.285 102.298C186.531 102.672 186.911 102.87 187.426 102.892C188.388 102.932 188.895 102.333 188.948 101.093L189.04 98.916L190.091 98.9606L190.007 100.935C189.954 102.167 190.396 102.802 191.333 102.842C191.78 102.861 192.141 102.712 192.417 102.394C192.701 102.076 192.857 101.58 192.886 100.905C192.908 100.39 192.848 99.8934 192.708 99.4141C192.568 98.9433 192.345 98.5112 192.041 98.118L193.059 97.7302C193.388 98.1414 193.633 98.642 193.794 99.232C193.954 99.822 194.021 100.438 193.994 101.079C193.949 102.133 193.692 102.917 193.222 103.429C192.753 103.942 192.151 104.183 191.417 104.151C190.936 104.131 190.528 103.987 190.193 103.719C189.858 103.451 189.619 103.099 189.477 102.662C189.32 103.162 189.055 103.548 188.68 103.82C188.305 104.091 187.839 104.215 187.282 104.191C186.489 104.158 185.873 103.848 185.433 103.263C184.992 102.687 184.797 101.812 184.847 100.64Z" fill="white"/>
<path d="M184.668 106.088L193.507 107.356L192.978 111.042C192.846 111.962 192.54 112.643 192.058 113.086C191.584 113.538 190.983 113.712 190.256 113.608C189.779 113.539 189.388 113.355 189.081 113.055C188.774 112.755 188.573 112.377 188.476 111.919C188.269 112.41 187.966 112.771 187.566 113.004C187.165 113.237 186.689 113.313 186.138 113.234C185.352 113.122 184.784 112.771 184.433 112.184C184.09 111.605 183.984 110.852 184.117 109.925L184.668 106.088ZM189.466 108.056L189.145 110.288C188.97 111.508 189.359 112.187 190.312 112.323C191.265 112.46 191.829 111.918 192.004 110.698L192.324 108.466L189.466 108.056ZM185.491 107.486L185.142 109.918C184.966 111.147 185.375 111.832 186.37 111.975C187.356 112.117 187.937 111.573 188.114 110.344L188.463 107.912L185.491 107.486Z" fill="white"/>
<path d="M189.915 118.199L190.39 117.776C190.504 117.958 190.624 118.094 190.751 118.184C190.875 118.282 191.007 118.351 191.145 118.392L191.296 117.737L192.456 118.005L192.137 119.387L191.359 119.208C191.047 119.136 190.769 119.024 190.527 118.873C190.293 118.724 190.089 118.499 189.915 118.199Z" fill="white"/>
<path d="M182.198 119.873L184.432 122.198C184.824 122.607 185.03 123.019 185.048 123.432C185.382 122.83 185.812 122.418 186.335 122.196C186.859 121.973 187.442 121.965 188.085 122.171C188.873 122.424 189.405 122.869 189.679 123.506C189.962 124.147 189.956 124.925 189.662 125.842L188.534 129.364L180.03 126.64L180.428 125.397L183.938 126.522L184.336 125.279C184.447 124.934 184.482 124.63 184.442 124.369C184.407 124.118 184.26 123.858 184 123.589L181.761 121.236L182.198 119.873ZM185.544 124.748L184.879 126.823L187.931 127.801L188.596 125.726C188.992 124.488 188.684 123.706 187.671 123.382C186.65 123.054 185.941 123.51 185.544 124.748Z" fill="white"/>
<path d="M179.602 128.348L181.813 131.047C182.421 131.784 182.696 132.526 182.639 133.272L187.508 132.525L186.896 133.847L182.308 134.5L181.85 135.489L185.379 137.123L184.846 138.272L181.318 136.638L180.86 137.627L183.329 141.548L182.717 142.87L180.138 138.674C179.866 138.939 179.543 139.134 179.169 139.258C178.803 139.387 178.384 139.458 177.912 139.472L174.423 139.531L175.014 138.255L177.886 138.232C178.419 138.227 178.841 138.129 179.152 137.939C179.468 137.759 179.72 137.466 179.908 137.06L180.318 136.175L176.743 134.52L177.276 133.37L180.85 135.026L181.26 134.141C181.452 133.727 181.516 133.338 181.452 132.973C181.388 132.609 181.189 132.224 180.856 131.818L179.006 129.635L179.602 128.348Z" fill="white"/>
<path d="M173.615 140.567L181.32 145.08L180.654 146.217L172.949 141.703L173.615 140.567Z" fill="white"/>
<path d="M170.373 145.823L176.835 150.241L178.622 147.627L179.532 148.249L175.222 154.554L174.312 153.932L176.099 151.318L169.637 146.9L170.373 145.823Z" fill="white"/>
<path d="M166.917 150.767L173.757 156.507L172.911 157.516L169.971 155.049L168.326 157.009C167.724 157.727 167.089 158.148 166.423 158.272C165.757 158.408 165.104 158.208 164.464 157.67C163.824 157.133 163.506 156.519 163.512 155.83C163.519 155.152 163.823 154.454 164.426 153.736L166.917 150.767ZM166.885 152.46L165.338 154.303C164.54 155.254 164.52 156.047 165.277 156.682C166.034 157.317 166.811 157.159 167.609 156.208L169.156 154.365L166.885 152.46Z" fill="white"/>
<path d="M157.895 160.53C158.545 159.903 159.23 159.5 159.95 159.322C160.67 159.144 161.392 159.181 162.116 159.433C162.84 159.697 163.527 160.166 164.177 160.841C164.828 161.516 165.269 162.217 165.501 162.943C165.726 163.676 165.737 164.399 165.533 165.112C165.329 165.825 164.902 166.495 164.251 167.122C163.814 167.544 163.339 167.867 162.827 168.09C162.315 168.326 161.809 168.439 161.307 168.43L160.906 167.357C161.426 167.336 161.887 167.237 162.291 167.059C162.694 166.894 163.069 166.644 163.415 166.31C164.108 165.641 164.432 164.919 164.386 164.141C164.341 163.364 163.94 162.584 163.184 161.8C162.427 161.015 161.659 160.583 160.878 160.504C160.103 160.43 159.369 160.727 158.676 161.395C158.33 161.729 158.063 162.092 157.877 162.482C157.691 162.885 157.578 163.346 157.538 163.865L156.48 163.425C156.495 162.929 156.627 162.427 156.875 161.918C157.117 161.415 157.457 160.952 157.895 160.53Z" fill="white"/>
<path d="M154.555 163.855L155.089 167.036C155.182 167.595 155.12 168.05 154.901 168.402C155.517 168.094 156.104 167.995 156.662 168.107C157.22 168.218 157.706 168.54 158.121 169.073C158.63 169.726 158.818 170.393 158.685 171.075C158.557 171.763 158.114 172.403 157.354 172.994L154.436 175.267L148.949 168.222L149.978 167.42L152.243 170.328L153.272 169.526C153.559 169.303 153.759 169.072 153.873 168.834C153.985 168.607 154.01 168.309 153.948 167.941L153.426 164.735L154.555 163.855ZM154.569 169.769L152.85 171.107L154.819 173.636L156.538 172.297C157.564 171.498 157.75 170.679 157.096 169.839C156.437 168.993 155.595 168.97 154.569 169.769Z" fill="white"/>
<path d="M140.639 173.407C141.293 173.036 141.921 172.792 142.524 172.674C143.123 172.568 143.681 172.567 144.197 172.673L144.304 173.762C143.811 173.663 143.317 173.656 142.823 173.742C142.325 173.84 141.808 174.04 141.271 174.344C140.603 174.723 140.176 175.109 139.992 175.505C139.805 175.911 139.839 176.339 140.093 176.787C140.567 177.625 141.344 177.738 142.424 177.126L144.32 176.053L144.838 176.968L143.119 177.941C142.046 178.549 141.74 179.26 142.202 180.076C142.423 180.465 142.741 180.693 143.156 180.758C143.576 180.831 144.08 180.701 144.667 180.368C145.116 180.115 145.506 179.801 145.838 179.429C146.164 179.06 146.412 178.643 146.585 178.177L147.453 178.835C147.278 179.332 146.983 179.805 146.567 180.253C146.152 180.702 145.665 181.085 145.106 181.401C144.188 181.921 143.387 182.117 142.703 181.99C142.02 181.862 141.497 181.479 141.135 180.84C140.898 180.421 140.805 179.999 140.854 179.572C140.904 179.146 141.077 178.757 141.373 178.406C140.865 178.538 140.397 178.516 139.969 178.342C139.54 178.167 139.188 177.838 138.914 177.353C138.523 176.662 138.459 175.975 138.722 175.292C138.978 174.614 139.617 173.985 140.639 173.407Z" fill="white"/>
<path d="M132.262 177.832L135.43 186.18L134.198 186.648L132.832 183.048L128.155 184.823L129.521 188.423L128.301 188.886L125.133 180.537L126.352 180.074L127.764 183.793L132.441 182.017L131.03 178.299L132.262 177.832Z" fill="white"/>
<path d="M123.403 181.14L121.754 190.775L120.698 191.044L114.627 183.376L115.928 183.045L117.374 184.924L121.756 183.808L122.114 181.469L123.403 181.14ZM120.879 189.495L121.565 184.955L118.067 185.846L120.854 189.501L120.879 189.495Z" fill="white"/>
<path d="M113.616 183.642L114.68 192.508L113.397 192.662L112.464 184.89L108.742 185.337L109.675 193.109L108.405 193.261L107.472 185.49L103.749 185.936L104.682 193.708L103.412 193.861L102.348 184.995L113.616 183.642Z" fill="white"/>
<path d="M99.811 184.992L99.7076 193.922L98.4918 193.907L98.5704 187.119L93.3623 193.848L92.3744 193.837L92.4778 184.907L93.6937 184.922L93.6148 191.736L98.8231 184.981L99.811 184.992Z" fill="white"/>
<path d="M90.5519 184.833L89.3855 193.686L88.2929 193.542L85.8211 186.995L81.7504 192.68L80.683 192.54L81.8494 183.686L83.0173 183.84L82.1619 190.333L85.6138 185.562L86.405 185.666L88.5194 191.145L89.3715 184.677L90.5519 184.833Z" fill="white"/>
<path d="M79.2983 183.187L77.0938 191.84L75.9155 191.54L77.5916 184.961L70.9445 190.274L69.9871 190.03L72.1916 181.377L73.3699 181.677L71.6876 188.28L78.341 182.943L79.2983 183.187Z" fill="white"/>
<path d="M66.416 179.414L62.9681 187.652L57.6402 185.421L58.051 184.44L62.2105 186.181L63.2913 183.599L59.3772 181.961L59.788 180.979L63.7022 182.617L64.8368 179.907L60.6773 178.166L61.0881 177.184L66.416 179.414Z" fill="white"/>
<path d="M58.8553 176.146L54.6581 184.028L53.4954 183.409L55.3231 179.976L54.0598 179.304L50.0185 181.557L48.7328 180.873L53.0654 178.53C52.8158 178.244 52.6393 177.911 52.5357 177.531C52.4282 177.158 52.3805 176.735 52.3926 176.263L52.5163 172.77L53.7684 173.437L53.6213 176.301C53.5963 176.833 53.6703 177.259 53.8434 177.581C54.0125 177.91 54.2945 178.18 54.6895 178.391L55.8411 179.004L57.6926 175.527L58.8553 176.146Z" fill="white"/>
<path d="M48.3505 169.875C49.1001 170.38 49.6374 170.965 49.9625 171.632C50.2875 172.298 50.4026 173.012 50.308 173.773C50.2017 174.536 49.8869 175.306 49.3636 176.084C48.8403 176.861 48.2476 177.44 47.5855 177.819C46.9164 178.193 46.212 178.355 45.4721 178.305C44.7322 178.255 43.9875 177.978 43.2379 177.473C42.7335 177.134 42.3183 176.737 41.9924 176.284C41.6548 175.833 41.4378 175.361 41.3416 174.869L42.3068 174.251C42.4358 174.755 42.6295 175.186 42.8879 175.543C43.1346 175.902 43.4576 176.216 43.857 176.485C44.6556 177.023 45.4301 177.187 46.1804 176.98C46.9308 176.772 47.61 176.217 48.2181 175.313C48.8263 174.409 49.0875 173.567 49.0019 172.787C48.9116 172.014 48.4671 171.358 47.6684 170.821C47.2691 170.552 46.8589 170.368 46.4378 170.268C46.0049 170.17 45.5307 170.156 45.0152 170.226L45.2238 169.1C45.7113 169.01 46.23 169.034 46.7798 169.17C47.3225 169.301 47.8461 169.536 48.3505 169.875Z" fill="white"/>
<path d="M43.9843 166.995L38.2194 173.815L32.4542 168.941L38.2191 162.122L39.2154 162.964L34.162 168.942L37.9248 172.123L42.9783 166.145L43.9843 166.995Z" fill="white"/>
<path d="M36.1733 160.187L29.7229 166.362L25.7288 162.19L26.4974 161.454L29.6156 164.712L31.6376 162.776L28.7034 159.711L29.4719 158.975L32.4062 162.04L34.5289 160.008L31.4107 156.751L32.1792 156.015L36.1733 160.187Z" fill="white"/>
<path d="M30.5148 154.149L23.5101 159.687L21.2162 156.786C20.6192 156.031 20.3471 155.299 20.3999 154.589C20.4461 153.885 20.8071 153.266 21.4827 152.732C22.165 152.193 22.8572 151.979 23.5595 152.091C24.2551 152.209 24.9015 152.645 25.4985 153.4L26.9754 155.268L29.6978 153.115L30.5148 154.149ZM26.1507 155.92L24.7917 154.201C23.9956 153.194 23.1571 153.039 22.2761 153.736C21.4018 154.427 21.3627 155.276 22.1587 156.283L23.5178 158.002L26.1507 155.92Z" fill="white"/>
<path d="M24.3309 145.874L17.7733 150.149L19.5025 152.802L18.5793 153.403L14.4086 147.005L15.3318 146.403L17.0609 149.056L23.6185 144.781L24.3309 145.874Z" fill="white"/>
<path d="M21.4363 141.471L11.676 142.014L11.1783 141.045L17.2984 133.416L17.9119 134.61L16.4022 136.439L18.4683 140.461L20.8287 140.288L21.4363 141.471ZM12.7287 140.875L17.3078 140.531L15.6584 137.32L12.7171 140.852L12.7287 140.875Z" fill="white"/>
<path d="M16.8885 132.554L8.52794 135.691L8.14082 134.659L12.7547 129.397L5.82251 128.481L5.44428 127.473L13.8048 124.336L14.2186 125.439L8.08757 127.739L13.9212 128.54L14.2016 129.287L10.3629 133.731L16.4702 131.439L16.8885 132.554Z" fill="white"/>
<path d="M13.0144 121.732L4.3365 123.838L4.04977 122.656L10.6474 121.055L2.84013 117.671L2.60717 116.711L11.285 114.605L11.5718 115.787L4.9495 117.394L12.7814 120.772L13.0144 121.732Z" fill="white"/>
<path d="M7.51965 109.114L6.48664 109.222L6.1076 105.594L7.14061 105.486L7.51965 109.114Z" fill="white"/>
<path d="M9.77965 95.2927C9.75934 96.044 9.64425 96.7082 9.43437 97.2854C9.21627 97.8539 8.92882 98.3319 8.57201 98.7193L7.58372 98.2491C7.92319 97.8781 8.18372 97.4586 8.36532 96.9904C8.5387 96.5136 8.63372 95.9671 8.65037 95.3509C8.67113 94.5828 8.55968 94.018 8.31603 93.6567C8.06417 93.2866 7.68078 93.0947 7.16588 93.0807C6.20359 93.0547 5.70569 93.6622 5.67215 94.903L5.6133 97.0808L4.56239 97.0524L4.61576 95.0772C4.64907 93.8448 4.19724 93.2159 3.26028 93.1906C2.81291 93.1785 2.45393 93.3335 2.18336 93.6557C1.90435 93.9776 1.75572 94.4762 1.73747 95.1514C1.72356 95.6663 1.7904 96.1623 1.93801 96.6393C2.08584 97.1079 2.31501 97.5365 2.6255 97.925L1.6136 98.3285C1.27824 97.9224 1.02558 97.4256 0.855615 96.8382C0.685651 96.2507 0.609338 95.6362 0.626675 94.9947C0.655189 93.9396 0.900321 93.1522 1.36207 92.6325C1.82382 92.1128 2.42188 91.8628 3.15625 91.8827C3.63739 91.8957 4.04758 92.0335 4.38682 92.2961C4.72606 92.5587 4.97006 92.9074 5.1188 93.3422C5.26755 92.8394 5.52728 92.4494 5.898 92.1722C6.26872 91.895 6.73264 91.7639 7.28975 91.779C8.08321 91.8004 8.70443 92.1002 9.1534 92.6783C9.60261 93.248 9.81135 94.1194 9.77965 95.2927Z" fill="white"/>
<path d="M9.86833 89.8593L1.01074 88.7269L1.48298 85.0331C1.60078 84.1117 1.89701 83.426 2.37169 82.9759C2.83905 82.5164 3.43709 82.3332 4.1658 82.4263C4.64323 82.4874 5.03759 82.6655 5.34888 82.9607C5.66017 83.2559 5.86755 83.6314 5.97101 84.0873C6.17034 83.5935 6.4683 83.2272 6.86488 82.9885C7.26145 82.7498 7.73615 82.6657 8.28896 82.7364C9.0763 82.8371 9.64983 83.1785 10.0095 83.7608C10.3619 84.3337 10.4787 85.085 10.3599 86.0147L9.86833 89.8593ZM5.04107 87.9652L5.32698 85.7288C5.48333 84.5059 5.08407 83.8334 4.12921 83.7114C3.17435 83.5893 2.61875 84.1397 2.4624 85.3626L2.17648 87.599L5.04107 87.9652ZM9.02384 88.4744L9.33546 86.037C9.49288 84.8057 9.07321 84.1264 8.07647 83.9989C7.08811 83.8726 6.51522 84.425 6.3578 85.6563L6.04618 88.0937L9.02384 88.4744Z" fill="white"/>
<path d="M4.43752 77.7921L3.96941 78.2228C3.85269 78.0423 3.73036 77.9081 3.6024 77.8202C3.47622 77.724 3.34384 77.6567 3.20525 77.6183L3.0644 78.2747L1.90028 78.0249L2.19792 76.6379L2.97814 76.8053C3.29187 76.8726 3.57109 76.98 3.8158 77.1275C4.05226 77.2733 4.2595 77.4948 4.43752 77.7921Z" fill="white"/>
<path d="M12.0233 76.391L9.74537 74.1084C9.3457 73.7066 9.13286 73.299 9.10685 72.8857C8.78352 73.494 8.36226 73.9144 7.84308 74.1466C7.3239 74.3789 6.74076 74.3981 6.09365 74.2042C5.30096 73.9666 4.76135 73.5317 4.47484 72.8993C4.18024 72.2645 4.17111 71.486 4.44744 70.5639L5.50913 67.021L14.063 69.5843L13.6885 70.834L10.1578 69.776L9.78326 71.0257C9.67903 71.3735 9.6496 71.6776 9.69497 71.938C9.73468 72.1879 9.88681 72.4451 10.1514 72.7095L12.4341 75.02L12.0233 76.391ZM8.58599 71.5793L9.21137 69.4924L6.14168 68.5725L5.5163 70.6594C5.14302 71.905 5.46596 72.6806 6.48515 72.986C7.51242 73.2938 8.2127 72.8249 8.58599 71.5793Z" fill="white"/>
<path d="M14.5737 67.5047L12.322 64.8387C11.7034 64.1105 11.4171 63.3729 11.4629 62.6262L6.60629 63.4452L7.19864 62.1145L11.7761 61.393L12.2191 60.3979L8.66663 58.8166L9.18172 57.6594L12.7342 59.2407L13.1772 58.2456L10.6497 54.3615L11.2421 53.0308L13.8838 57.1876C14.1515 56.9185 14.4714 56.7189 14.8436 56.5888C15.208 56.4553 15.6261 56.3779 16.0976 56.3567L19.5855 56.2456L19.0137 57.53L16.1419 57.5965C15.6095 57.6091 15.1889 57.713 14.8801 57.9083C14.5671 58.0925 14.3195 58.389 14.1375 58.7978L13.7409 59.6889L17.3397 61.2908L16.8246 62.4479L13.2258 60.846L12.8292 61.737C12.6438 62.1536 12.5857 62.5437 12.6549 62.9072C12.7242 63.2708 12.9284 63.6529 13.2677 64.0535L15.1506 66.2087L14.5737 67.5047Z" fill="white"/>
<path d="M20.2101 55.4848L12.4233 51.114L13.068 49.9653L20.8549 54.3361L20.2101 55.4848Z" fill="white"/>
<path d="M23.299 50.2383L16.7571 45.9398L15.0183 48.5862L14.0973 47.9811L18.2915 41.598L19.2124 42.2031L17.4736 44.8495L24.0154 49.148L23.299 50.2383Z" fill="white"/>
<path d="M26.8757 44.9162L19.9524 39.2764L20.7844 38.2551L23.7599 40.679L25.3759 38.6953C25.9678 37.9687 26.5961 37.5383 27.2607 37.4044C27.924 37.2586 28.5797 37.4497 29.2279 37.9777C29.876 38.5057 30.2023 39.1146 30.2067 39.8044C30.21 40.4823 29.9156 41.1845 29.3236 41.9112L26.8757 44.9162ZM26.8828 43.223L28.4027 41.3571C29.1867 40.3947 29.1957 39.6015 28.4297 38.9776C27.6637 38.3536 26.8887 38.5228 26.1048 39.4852L24.5848 41.351L26.8828 43.223Z" fill="white"/>
<path d="M35.7461 35.0086C35.1049 35.6452 34.4257 36.0577 33.7085 36.2461C32.9913 36.4346 32.2689 36.4081 31.5413 36.1666C30.8138 35.9132 30.1198 35.4539 29.4595 34.7887C28.7991 34.1235 28.3478 33.4293 28.1056 32.7059C27.8695 31.9766 27.8482 31.254 28.0419 30.5382C28.2355 29.8224 28.653 29.1462 29.2942 28.5096C29.7256 28.0813 30.1956 27.7516 30.7039 27.5206C31.2123 27.2776 31.7173 27.1571 32.2189 27.1589L32.636 28.2262C32.1164 28.2542 31.6562 28.36 31.2555 28.5436C30.8548 28.7153 30.4837 28.9708 30.1421 29.3099C29.459 29.9881 29.1458 30.7154 29.2027 31.4918C29.2596 32.2682 29.6718 33.043 30.4392 33.816C31.2067 34.5891 31.9814 35.0098 32.7633 35.0784C33.5393 35.1409 34.2689 34.8331 34.952 34.1548C35.2936 33.8157 35.5547 33.4495 35.7353 33.0561C35.9159 32.6507 36.022 32.1883 36.0538 31.669L37.118 32.0938C37.1103 32.5893 36.986 33.0934 36.7453 33.6061C36.5106 34.1127 36.1775 34.5803 35.7461 35.0086Z" fill="white"/>
<path d="M39.0354 31.6157L38.4548 28.4437C38.3537 27.886 38.4097 27.4296 38.6227 27.0746C38.0113 27.392 37.426 27.4991 36.8667 27.3958C36.3073 27.2925 35.8163 26.9774 35.3934 26.4506C34.8755 25.8052 34.6779 25.1409 34.8008 24.4575C34.9184 23.7677 35.3526 23.1214 36.1034 22.5189L38.9878 20.2039L44.5771 27.1681L43.5596 27.9847L41.2526 25.1101L40.2351 25.9267C39.9519 26.154 39.7551 26.3877 39.6447 26.6279C39.5356 26.8562 39.515 27.1543 39.5828 27.5221L40.1516 30.7199L39.0354 31.6157ZM38.9351 25.7032L40.6342 24.3396L38.6284 21.8404L36.9293 23.204C35.9152 24.018 35.741 24.8398 36.407 25.6696C37.0782 26.506 37.9209 26.5172 38.9351 25.7032Z" fill="white"/>
<path d="M52.7411 21.8792C52.0926 22.2591 51.468 22.5124 50.867 22.6394C50.2692 22.7547 49.7115 22.7633 49.1941 22.6652L49.0708 21.5777C49.5651 21.6698 50.059 21.6692 50.5524 21.5759C51.0488 21.4711 51.5629 21.2629 52.0948 20.9513C52.7578 20.5629 53.1783 20.1698 53.3563 19.772C53.5373 19.3626 53.4976 18.9356 53.2373 18.4912C52.7507 17.6606 51.9719 17.559 50.9008 18.1864L49.021 19.2875L48.4897 18.3804L50.1946 17.3817C51.2584 16.7586 51.5534 16.0426 51.0796 15.2338C50.8534 14.8477 50.5321 14.6249 50.1156 14.5655C49.6949 14.4988 49.1931 14.6362 48.6102 14.9776C48.1657 15.238 47.78 15.5569 47.4531 15.9343C47.1335 16.3075 46.8908 16.7286 46.7251 17.1975L45.8478 16.5518C46.0152 16.0524 46.3034 15.5754 46.7122 15.1206C47.121 14.6658 47.6023 14.2762 48.1561 13.9518C49.0668 13.4183 49.8648 13.2102 50.5501 13.3275C51.2353 13.4447 51.7636 13.8203 52.1349 14.4542C52.3782 14.8695 52.478 15.2906 52.4344 15.7173C52.3908 16.1441 52.2238 16.5355 51.9333 16.8916C52.4388 16.7521 52.9071 16.7665 53.3384 16.9347C53.7696 17.1029 54.1261 17.4274 54.4078 17.9083C54.809 18.5932 54.8829 19.279 54.6295 19.9657C54.3833 20.6481 53.7539 21.2859 52.7411 21.8792Z" fill="white"/>
<path d="M60.8073 17.3957L57.5141 9.09539L58.7385 8.60959L60.1586 12.1887L64.8091 10.3436L63.389 6.76447L64.6017 6.28333L67.8949 14.5836L66.6822 15.0647L65.2155 11.3679L60.565 13.213L62.0317 16.9098L60.8073 17.3957Z" fill="white"/>
<path d="M69.6603 13.8924L71.1634 4.23326L72.2148 3.94834L78.4014 11.5236L77.1055 11.8748L75.631 10.0172L71.2666 11.1999L70.944 13.5445L69.6603 13.8924ZM72.0579 5.50002L71.4406 10.0504L74.9248 9.10619L72.0823 5.49339L72.0579 5.50002Z" fill="white"/>
<path d="M79.3477 11.2053L78.1473 2.3567L79.4275 2.18302L80.4798 9.9397L84.1949 9.43569L83.1427 1.67902L84.4103 1.50704L85.4626 9.26372L89.1778 8.75971L88.1255 1.00303L89.3932 0.831059L90.5936 9.6797L79.3477 11.2053Z" fill="white"/>
<path d="M92.5589 9.61349L92.49 0.68406L93.7059 0.674672L93.7583 7.46357L98.8356 0.635069L99.8235 0.627441L99.8925 9.55687L98.6765 9.56625L98.6239 2.75203L93.5469 9.60586L92.5589 9.61349Z" fill="white"/>
<path d="M102.061 9.55079L103.058 0.676835L104.153 0.799762L106.75 7.2985L110.711 1.53591L111.781 1.65601L110.784 10.53L109.614 10.3986L110.344 3.891L106.985 8.72689L106.192 8.63787L103.972 3.20122L103.245 9.68361L102.061 9.55079Z" fill="white"/>
<path d="M113.472 10.9633L115.512 2.26963L116.696 2.54736L115.145 9.157L121.69 3.71902L122.652 3.94467L120.612 12.6383L119.428 12.3606L120.985 5.72629L114.434 11.1889L113.472 10.9633Z" fill="white"/>
<path d="M126.307 14.3983L129.601 6.09807L134.969 8.22814L134.577 9.2171L130.386 7.55415L129.353 10.1561L133.297 11.7209L132.905 12.7099L128.961 11.145L127.877 13.8765L132.068 15.5394L131.676 16.5284L126.307 14.3983Z" fill="white"/>
<path d="M134.307 17.6575L138.387 9.71446L139.559 10.3163L137.782 13.7752L139.056 14.4292L143.063 12.1162L144.359 12.7817L140.061 15.1879C140.315 15.4701 140.496 15.8007 140.606 16.1795C140.719 16.5508 140.773 16.9725 140.768 17.4445L140.696 20.9389L139.434 20.2908L139.538 17.4255C139.556 16.8932 139.475 16.4675 139.297 16.1483C139.123 15.8216 138.837 15.556 138.439 15.3515L137.279 14.7555L135.479 18.2594L134.307 17.6575Z" fill="white"/>
<path d="M144.827 23.6768C144.068 23.1862 143.52 22.6106 143.183 21.9501C142.846 21.2897 142.718 20.5783 142.799 19.8159C142.891 19.0511 143.192 18.2751 143.701 17.488C144.209 16.7009 144.791 16.1119 145.447 15.7209C146.109 15.3346 146.81 15.1596 147.551 15.1961C148.291 15.2326 149.041 15.4961 149.8 15.9867C150.31 16.3168 150.733 16.7056 151.067 17.153C151.413 17.5978 151.638 18.0655 151.743 18.5558L150.79 19.1911C150.651 18.6894 150.45 18.2624 150.185 17.9101C149.932 17.5553 149.603 17.2472 149.199 16.9859C148.391 16.4632 147.613 16.3125 146.867 16.5337C146.12 16.755 145.451 17.323 144.86 18.2377C144.268 19.1524 144.023 19.999 144.123 20.7776C144.227 21.5491 144.683 22.1961 145.492 22.7189C145.896 22.9802 146.31 23.1571 146.732 23.2496C147.167 23.3395 147.641 23.3446 148.156 23.2648L147.968 24.3952C147.482 24.4933 146.963 24.4795 146.411 24.3537C145.866 24.2325 145.338 24.0069 144.827 23.6768Z" fill="white"/>
<path d="M149.53 26.6627L155.195 19.76L161.03 24.5491L155.365 31.4518L154.357 30.6242L159.323 24.5733L155.514 21.4475L150.548 27.4984L149.53 26.6627Z" fill="white"/>
<path d="M157.478 33.3704L163.837 27.1022L167.892 31.2159L167.134 31.9628L163.969 28.7512L161.975 30.7161L164.954 33.7382L164.196 34.4851L161.217 31.463L159.124 33.5257L162.29 36.7373L161.532 37.4841L157.478 33.3704Z" fill="white"/>
<path d="M162.964 39.0086L169.866 33.3436L172.213 36.2026C172.823 36.9468 173.109 37.6738 173.069 38.3839C173.035 39.0886 172.686 39.7141 172.02 40.2605C171.348 40.8123 170.659 41.0385 169.955 40.9392C169.258 40.8345 168.603 40.41 167.993 39.6659L166.482 37.8252L163.799 40.0269L162.964 39.0086ZM167.295 37.1583L168.685 38.8521C169.499 39.8443 170.34 39.9841 171.208 39.2716C172.07 38.5645 172.094 37.7149 171.279 36.7227L169.889 35.0289L167.295 37.1583Z" fill="white"/>
<path d="M169.472 47.3845L175.966 43.0143L174.198 40.3872L175.113 39.772L179.377 46.1086L178.462 46.7238L176.694 44.0967L170.2 48.4668L169.472 47.3845Z" fill="white"/>
<path d="M172.346 51.5707L182.095 50.848L182.611 51.8075L176.633 59.5485L175.997 58.3658L177.473 56.509L175.333 52.5257L172.976 52.7423L172.346 51.5707ZM181.064 52.006L176.492 52.435L178.2 55.615L181.076 52.0283L181.064 52.006Z" fill="white"/>
<path d="M177.19 60.649L185.502 57.3869L185.905 58.4127L181.37 63.7435L188.315 64.5557L188.709 65.5579L180.396 68.82L179.966 67.7235L186.062 65.3313L180.217 64.618L179.925 63.8752L183.697 59.3744L177.625 61.7573L177.19 60.649Z" fill="white"/>
<path d="M181.156 71.1328L189.792 68.8626L190.101 70.0386L183.535 71.7646L191.405 74.9999L191.656 75.9554L183.02 78.2256L182.711 77.0496L189.301 75.3172L181.407 72.0883L181.156 71.1328Z" fill="white"/>
<path d="M186.953 84.0008L187.984 83.877L188.419 87.4989L187.387 87.6227L186.953 84.0008Z" fill="white"/>
</svg>
