<svg width="203" height="202" viewBox="0 0 203 202" fill="none" xmlns="http://www.w3.org/2000/svg">
<path d="M187.119 102.079L202.405 103.024L202.295 104.802L188.57 103.954L188.089 111.738L186.528 111.641L187.119 102.079Z" fill="#EEEDF2"/>
<path d="M185.124 117.984C185.443 116.349 186.171 115.148 187.309 114.381C188.461 113.617 189.861 113.395 191.51 113.716C192.577 113.924 193.473 114.32 194.201 114.904C194.942 115.491 195.461 116.197 195.758 117.022C196.066 117.864 196.125 118.776 195.934 119.756C195.66 121.164 194.99 122.177 193.925 122.796C192.875 123.418 191.561 123.575 189.983 123.268L189.322 123.139L190.841 115.334C189.65 115.162 188.681 115.327 187.934 115.831C187.201 116.337 186.726 117.145 186.51 118.254C186.389 118.879 186.365 119.494 186.439 120.099C186.527 120.706 186.742 121.309 187.083 121.906L185.751 122.267C185.402 121.712 185.17 121.047 185.055 120.272C184.955 119.5 184.978 118.737 185.124 117.984ZM194.646 119.55C194.837 118.569 194.682 117.735 194.182 117.047C193.681 116.36 192.943 115.869 191.967 115.576L190.742 121.866C191.803 122.028 192.674 121.91 193.357 121.512C194.036 121.128 194.466 120.474 194.646 119.55Z" fill="#EEEDF2"/>
<path d="M182.514 127.858C182.881 126.668 183.467 125.871 184.273 125.467C185.093 125.068 186.098 125.052 187.289 125.418L192.583 127.049L193.19 125.076L194.498 125.479L193.891 127.452L196.985 128.404L196.467 130.086L193.373 129.133L192.389 132.331L191.081 131.928L192.065 128.73L186.937 127.151C186.148 126.908 185.495 126.889 184.977 127.093C184.473 127.302 184.107 127.78 183.876 128.527C183.808 128.749 183.768 128.979 183.755 129.217C183.742 129.456 183.736 129.674 183.736 129.871L182.359 129.765C182.317 129.555 182.308 129.264 182.332 128.893C182.355 128.521 182.416 128.176 182.514 127.858Z" fill="#EEEDF2"/>
<path d="M191.523 138.431L196.673 137.52L195.945 139.24L191.032 139.592L191.523 138.431Z" fill="#EEEDF2"/>
<path d="M175.711 143.103C176.12 142.386 176.608 141.764 177.176 141.238C177.743 140.711 178.328 140.345 178.93 140.138L179.725 141.242C179.102 141.487 178.548 141.829 178.063 142.269C177.583 142.729 177.182 143.242 176.859 143.808C176.449 144.525 176.273 145.141 176.328 145.657C176.384 146.173 176.639 146.56 177.091 146.818C177.443 147.019 177.788 147.058 178.126 146.934C178.476 146.817 178.855 146.533 179.263 146.082L180.62 144.581C181.851 143.215 183.101 142.895 184.371 143.62C185.201 144.094 185.681 144.802 185.811 145.743C185.933 146.697 185.689 147.708 185.078 148.777C184.719 149.406 184.278 149.946 183.753 150.397C183.234 150.868 182.678 151.184 182.086 151.346L181.301 150.223C181.849 150.052 182.351 149.772 182.807 149.382C183.269 149.011 183.636 148.587 183.909 148.11C184.311 147.405 184.478 146.792 184.41 146.269C184.341 145.746 184.081 145.356 183.628 145.097C182.923 144.695 182.205 144.902 181.472 145.717L180.134 147.23C179.498 147.934 178.867 148.382 178.24 148.575C177.625 148.774 176.991 148.687 176.337 148.314C175.495 147.833 175.018 147.119 174.909 146.172C174.811 145.233 175.079 144.21 175.711 143.103Z" fill="#EEEDF2"/>
<path d="M166.36 156.466C167.147 155.5 167.99 154.982 168.888 154.91C169.798 154.848 170.736 155.211 171.702 155.997L175.996 159.496L177.3 157.896L178.361 158.76L177.058 160.36L179.567 162.405L178.456 163.769L175.946 161.725L173.833 164.318L172.772 163.454L174.885 160.86L170.725 157.471C170.085 156.95 169.487 156.687 168.93 156.682C168.385 156.686 167.866 156.991 167.372 157.598C167.225 157.777 167.101 157.975 167 158.192C166.898 158.408 166.811 158.607 166.737 158.79L165.5 158.175C165.541 157.965 165.642 157.692 165.803 157.356C165.964 157.021 166.15 156.724 166.36 156.466Z" fill="#EEEDF2"/>
<path d="M161.947 161.224C162.461 160.714 163.02 160.353 163.625 160.14C164.23 159.947 164.824 159.909 165.408 160.023C165.991 160.138 166.497 160.411 166.925 160.843C167.466 161.388 167.756 161.957 167.795 162.551C167.823 163.156 167.58 163.846 167.065 164.622C166.55 165.419 165.728 166.379 164.597 167.501L164.104 167.991L164.578 168.469C165.211 169.106 165.798 169.431 166.341 169.443C166.884 169.476 167.443 169.207 168.018 168.635C168.471 168.186 168.841 167.686 169.13 167.134C169.429 166.592 169.657 165.958 169.813 165.231L171.147 165.713C171.032 166.378 170.779 167.068 170.387 167.784C169.985 168.509 169.527 169.127 169.013 169.637C168.047 170.596 167.098 171.069 166.166 171.056C165.224 171.052 164.258 170.552 163.268 169.555L158.585 164.837L159.757 163.674L161.042 164.969C160.799 164.333 160.755 163.683 160.911 163.018C161.057 162.363 161.402 161.765 161.947 161.224ZM162.68 162.364C162.063 162.976 161.769 163.687 161.797 164.496C161.835 165.315 162.18 166.054 162.833 166.712L163.293 167.174L163.77 166.7C164.603 165.873 165.22 165.179 165.621 164.617C166.023 164.076 166.224 163.611 166.226 163.221C166.227 162.853 166.064 162.504 165.738 162.175C165.319 161.754 164.834 161.552 164.281 161.571C163.717 161.599 163.184 161.864 162.68 162.364Z" fill="#EEEDF2"/>
<path d="M153.929 168.365C154.76 167.688 155.585 167.417 156.405 167.553C157.223 167.708 158.012 168.252 158.771 169.184L166.235 178.347L164.871 179.458L157.489 170.396C156.51 169.195 155.544 168.983 154.589 169.76C154.309 169.989 154.083 170.229 153.914 170.479L153.014 169.306C153.298 168.944 153.603 168.63 153.929 168.365Z" fill="#EEEDF2"/>
<path d="M151.801 170.31L160.258 183.079L158.791 184.051L153.573 176.172L153.537 176.196L152.053 182.807L150.187 184.043L151.799 176.878L143.977 175.492L145.842 174.257L153.033 175.435L153.069 175.411L150.334 171.282L151.801 170.31Z" fill="#EEEDF2"/>
<path d="M135.438 179.7L142.86 188.176L141.134 188.831L135.338 181.946L135.467 190.982L134.066 191.514L128.201 184.631L128.399 193.664L126.754 194.289L126.704 183.015L128.268 182.421L133.957 189.022L133.854 180.302L135.438 179.7Z" fill="#EEEDF2"/>
<path d="M125.543 196.869L126.009 198.79L123.898 199.303L123.432 197.382L125.543 196.869ZM122.222 184.106L124.712 194.366L123.002 194.781L120.512 184.521L122.222 184.106Z" fill="#EEEDF2"/>
<path d="M113.234 185.682C114.463 185.482 115.437 185.653 116.157 186.196C116.879 186.753 117.34 187.647 117.54 188.876L118.432 194.343L120.469 194.011L120.689 195.362L118.652 195.694L119.174 198.889L117.437 199.172L116.916 195.977L113.614 196.516L113.394 195.165L116.695 194.627L115.832 189.331C115.699 188.516 115.426 187.922 115.013 187.549C114.602 187.191 114.011 187.074 113.239 187.2C113.01 187.238 112.786 187.304 112.567 187.398C112.347 187.492 112.15 187.583 111.973 187.671L111.456 186.391C111.626 186.26 111.882 186.123 112.225 185.979C112.569 185.835 112.905 185.736 113.234 185.682Z" fill="#EEEDF2"/>
<path d="M110.147 186.339L110.974 201.632L109.217 201.727L108.866 195.241C108.554 195.896 108.095 196.399 107.49 196.751C106.872 197.118 106.172 197.323 105.391 197.365C102.89 197.5 101.564 196.18 101.413 193.403L101.058 186.83L102.815 186.735L103.165 193.199C103.218 194.183 103.452 194.888 103.866 195.315C104.267 195.758 104.887 195.956 105.726 195.911C106.695 195.859 107.452 195.513 107.998 194.874C108.53 194.251 108.769 193.44 108.715 192.442L108.39 186.434L110.147 186.339Z" fill="#EEEDF2"/>
<path d="M88.5838 185.578C89.601 185.727 90.4495 186.079 91.1291 186.633C91.8086 187.187 92.297 187.896 92.5943 188.76C92.8751 189.636 92.9342 190.625 92.7715 191.728C92.6089 192.832 92.2679 193.755 91.7484 194.498C91.2125 195.254 90.5393 195.799 89.7288 196.133C88.9183 196.467 88.0044 196.559 86.9871 196.409C85.9841 196.262 85.1429 195.911 84.4633 195.357C83.7694 194.801 83.282 194.085 83.0012 193.209C82.704 192.345 82.6367 191.362 82.7993 190.259C82.9619 189.155 83.3112 188.226 83.8471 187.47C84.3665 186.727 85.0387 186.19 85.8635 185.857C86.6741 185.523 87.5808 185.43 88.5838 185.578ZM88.3778 186.975C87.4035 186.831 86.572 187.06 85.8832 187.661C85.1922 188.276 84.7517 189.229 84.5616 190.518C84.3694 191.822 84.5164 192.861 85.0024 193.636C85.4885 194.41 86.2187 194.869 87.193 195.012C88.1816 195.158 89.0204 194.93 89.7092 194.329C90.3837 193.726 90.817 192.773 91.0092 191.469C91.1993 190.179 91.0595 189.141 90.5899 188.355C90.1038 187.58 89.3665 187.12 88.3778 186.975Z" fill="#EEEDF2"/>
<path d="M78.2187 183.383C80.6573 184.074 81.4957 185.764 80.734 188.453L78.946 194.766L77.253 194.286L79.035 187.995C79.2915 187.089 79.2998 186.369 79.0599 185.834C78.806 185.296 78.2819 184.914 77.4876 184.689C76.6237 184.444 75.8391 184.531 75.1338 184.948C74.4246 185.379 73.9338 186.076 73.6615 187.037L72.0275 192.806L70.3345 192.327L73.2117 182.168L74.863 182.636L74.3775 184.35C74.8717 183.828 75.4587 183.482 76.1387 183.314C76.8008 183.155 77.4941 183.178 78.2187 183.383Z" fill="#EEEDF2"/>
<path d="M70.8631 181.217L66.8595 190.986L65.2715 190.335L65.9882 188.586C64.9822 189.552 63.6438 189.762 61.9728 189.218L61.3652 189.04L61.8212 187.583L62.8958 187.883C63.8534 188.181 64.6778 188.175 65.369 187.863C66.0546 187.565 66.5759 186.98 66.9329 186.109L69.2148 180.541L70.8631 181.217Z" fill="#EEEDF2"/>
<path d="M55.1247 173.066C56.5364 173.95 57.3961 175.06 57.7037 176.397C58.0036 177.747 57.7079 179.134 56.8164 180.558C56.2401 181.479 55.5488 182.173 54.7425 182.643C53.9285 183.124 53.0832 183.355 52.2066 183.336C51.3101 183.322 50.4383 183.049 49.5913 182.519C48.376 181.758 47.6705 180.77 47.4749 179.554C47.2716 178.35 47.5964 177.067 48.4494 175.705L48.8068 175.134L55.5462 179.353C56.1349 178.303 56.3283 177.339 56.1263 176.461C55.9166 175.595 55.333 174.862 54.3755 174.263C53.8353 173.925 53.2698 173.682 52.6788 173.534C52.0802 173.398 51.4408 173.382 50.7607 173.486L50.9021 172.114C51.5455 171.987 52.2493 172.009 53.0137 172.18C53.7704 172.363 54.4741 172.659 55.1247 173.066ZM50.2461 181.391C51.0931 181.922 51.9274 182.076 52.7488 181.856C53.5703 181.636 54.293 181.123 54.9168 180.317L49.4848 176.917C48.953 177.848 48.7505 178.704 48.8773 179.484C48.9919 180.256 49.4482 180.892 50.2461 181.391Z" fill="#EEEDF2"/>
<path d="M51.1629 170.811L44.3168 172.267L44.2926 178.832L42.6757 177.515L42.7568 172.566L37.9091 173.632L36.309 172.329L42.7335 170.978L42.7751 163.978L44.392 165.296L44.3378 170.659L49.546 169.494L51.1629 170.811Z" fill="#EEEDF2"/>
<path d="M44.8206 160.48L34.2969 170.409L33.1192 169.161L34.4939 167.864C33.8012 168.079 33.1095 168.085 32.4188 167.88C31.7076 167.675 31.0637 167.267 30.4873 166.656C29.8412 165.971 29.443 165.222 29.2925 164.408C29.1215 163.594 29.207 162.767 29.5491 161.926C29.8706 161.085 30.4422 160.277 31.2639 159.502C32.075 158.737 32.915 158.213 33.7838 157.931C34.6321 157.648 35.4631 157.611 36.2766 157.819C37.0802 158.016 37.8051 158.458 38.4511 159.142C39.0077 159.732 39.3729 160.383 39.5469 161.095C39.7209 161.807 39.6805 162.492 39.4257 163.151L43.613 159.2L44.8206 160.48ZM37.6775 160.38C37.0016 159.664 36.2071 159.328 35.294 159.373C34.3703 159.428 33.4345 159.903 32.4864 160.798C31.5278 161.702 30.9994 162.609 30.9012 163.518C30.8031 164.427 31.092 165.239 31.7678 165.956C32.4436 166.672 33.2381 167.008 34.1513 166.962C35.0644 166.917 36.0003 166.442 36.9589 165.538C37.907 164.643 38.4353 163.737 38.544 162.818C38.6422 161.909 38.3533 161.096 37.6775 160.38Z" fill="#EEEDF2"/>
<path d="M31.2978 150.349C32.2727 151.699 32.6506 153.052 32.4318 154.406C32.2012 155.769 31.4048 156.943 30.0426 157.926C29.1619 158.562 28.2597 158.945 27.3361 159.076C26.4007 159.215 25.5306 159.111 24.7258 158.763C23.9007 158.412 23.1958 157.831 22.6109 157.021C21.7717 155.859 21.4905 154.677 21.7674 153.477C22.0325 152.285 22.8168 151.219 24.1203 150.278L24.6663 149.884L29.32 156.331C30.2607 155.58 30.803 154.76 30.9467 153.871C31.0787 152.99 30.8141 152.091 30.1529 151.175C29.7799 150.658 29.3476 150.22 28.8559 149.861C28.3524 149.51 27.7661 149.254 27.0969 149.094L27.7449 147.876C28.3886 148.001 29.0324 148.286 29.676 148.733C30.308 149.188 30.8486 149.726 31.2978 150.349ZM23.6423 156.223C24.2272 157.033 24.9417 157.491 25.7857 157.596C26.6297 157.701 27.4924 157.498 28.3737 156.987L24.6228 151.791C23.7793 152.454 23.2693 153.17 23.093 153.94C22.9082 154.699 23.0913 155.46 23.6423 156.223Z" fill="#EEEDF2"/>
<path d="M27.7963 145.437L18.6279 150.672L17.7768 149.182L19.4181 148.245C18.0313 148.386 16.8467 147.728 15.8646 146.271L15.4956 145.756L16.7515 144.889L17.4141 145.787C17.9851 146.611 18.6388 147.114 19.3753 147.293C20.0991 147.48 20.8698 147.341 21.6873 146.874L26.9129 143.89L27.7963 145.437Z" fill="#EEEDF2"/>
<path d="M22.6315 135.039C23.1549 136.169 23.2518 137.154 22.9221 137.993C22.5792 138.838 21.8427 139.522 20.7125 140.046L15.6857 142.374L16.553 144.246L15.311 144.821L14.4438 142.949L11.5066 144.309L10.7671 142.712L13.7043 141.352L12.2985 138.316L13.5404 137.741L14.9463 140.777L19.8154 138.522C20.5645 138.175 21.0631 137.753 21.3113 137.255C21.5463 136.763 21.4995 136.162 21.1709 135.452C21.0735 135.242 20.9499 135.044 20.7999 134.858C20.65 134.672 20.5092 134.506 20.3775 134.359L21.4719 133.517C21.643 133.646 21.844 133.856 22.075 134.148C22.306 134.44 22.4915 134.737 22.6315 135.039Z" fill="#EEEDF2"/>
<path d="M20.188 128.695C20.4547 129.476 20.5976 130.254 20.6169 131.028C20.6362 131.802 20.5242 132.483 20.2811 133.071L18.9268 132.936C19.1559 132.307 19.2658 131.665 19.2565 131.01C19.2289 130.346 19.1098 129.706 18.8993 129.089C18.6327 128.308 18.2876 127.768 17.8641 127.468C17.4406 127.169 16.9821 127.104 16.4887 127.272C16.1049 127.403 15.8478 127.636 15.7174 127.971C15.5733 128.311 15.5354 128.783 15.6039 129.387L15.8312 131.399C16.0412 133.225 15.454 134.374 14.0696 134.846C13.165 135.155 12.3169 135.047 11.5254 134.521C10.7292 133.982 10.1323 133.129 9.73472 131.964C9.50083 131.279 9.38828 130.591 9.39708 129.899C9.3875 129.198 9.51813 128.572 9.78899 128.021L11.1504 128.176C10.9159 128.7 10.794 129.261 10.7845 129.861C10.7567 130.453 10.8317 131.008 11.0094 131.529C11.2714 132.297 11.621 132.828 12.0582 133.122C12.4954 133.417 12.9607 133.48 13.4541 133.312C14.2217 133.05 14.542 132.374 14.4152 131.285L14.1673 129.281C14.0598 128.338 14.1413 127.568 14.4118 126.971C14.6687 126.378 15.1534 125.96 15.8662 125.717C16.7845 125.404 17.6349 125.519 18.4174 126.063C19.1862 126.612 19.7764 127.489 20.188 128.695Z" fill="#EEEDF2"/>
<path d="M11.6667 116.321L10.215 116.425L9.77689 110.358L11.2286 110.254L11.6667 116.321Z" fill="#EEEDF2"/>
<path d="M15.2826 99.3609L0 98.3572L0.11675 96.5796L13.8386 97.4809L14.3497 89.6987L15.9105 89.8012L15.2826 99.3609Z" fill="#EEEDF2"/>
<path d="M17.3365 83.4466C17.0119 85.0802 16.2792 86.2783 15.1384 87.041C13.9834 87.8008 12.582 88.0171 10.9342 87.6897C9.86878 87.4781 8.97357 87.0787 8.24854 86.4917C7.50931 85.9019 6.99289 85.1939 6.69928 84.3677C6.39429 83.5245 6.33915 82.6129 6.53388 81.6327C6.81327 80.2264 7.48655 79.2158 8.55371 78.6009C9.60668 77.9833 10.9215 77.831 12.4983 78.1443L13.1588 78.2755L11.6095 86.0741C12.7998 86.2515 13.7696 86.0898 14.5188 85.589C15.2538 85.0853 15.7313 84.2795 15.9515 83.1715C16.0756 82.5464 16.1018 81.9315 16.03 81.3266C15.9441 80.7189 15.7317 80.1156 15.3929 79.5167L16.726 79.1614C17.0732 79.7176 17.3027 80.3834 17.4145 81.1587C17.512 81.9311 17.486 82.6938 17.3365 83.4466ZM7.82081 81.8441C7.62608 82.8242 7.77769 83.6591 8.27562 84.3487C8.77356 85.0382 9.50983 85.5315 10.4844 85.8285L11.7332 79.5427C10.6736 79.3765 9.80175 79.4912 9.11774 79.8869C8.43655 80.2684 8.00424 80.9208 7.82081 81.8441Z" fill="#EEEDF2"/>
<path d="M19.9766 73.6035C19.6055 74.7925 19.0162 75.5871 18.2085 75.9875C17.3871 76.3835 16.3818 76.396 15.1929 76.025L9.90473 74.3747L9.28993 76.3448L7.98345 75.9371L8.59825 73.967L5.50832 73.0027L6.03252 71.323L9.12245 72.2872L10.1191 69.0936L11.4256 69.5013L10.4289 72.6949L15.5512 74.2934C16.3392 74.5393 16.9924 74.5611 17.5107 74.3587C18.0152 74.1521 18.3839 73.6754 18.6169 72.9289C18.6859 72.7077 18.7273 72.4778 18.741 72.2394C18.7547 72.0009 18.762 71.7832 18.7628 71.5862L20.1391 71.6971C20.1798 71.907 20.1877 72.1978 20.1628 72.5693C20.1379 72.9408 20.0758 73.2855 19.9766 73.6035Z" fill="#EEEDF2"/>
<path d="M10.9558 63.1094L5.80221 64.0017L6.53642 62.2838L11.451 61.9508L10.9558 63.1094Z" fill="#EEEDF2"/>
<path d="M26.8147 58.4116C26.4027 59.127 25.9119 59.7469 25.3425 60.2713C24.7731 60.7957 24.1871 61.1602 23.5846 61.3647L22.7935 60.2572C23.4177 60.0151 23.973 59.6747 24.4595 59.2363C24.9407 58.778 25.3439 58.2665 25.6692 57.7018C26.0812 56.9864 26.2602 56.3709 26.2063 55.8551C26.1523 55.3394 25.8995 54.9514 25.4476 54.6912C25.0962 54.4888 24.7515 54.449 24.4133 54.5718C24.0627 54.6874 23.6827 54.9699 23.2734 55.4194L21.9102 56.9157C20.6751 58.2767 19.4238 58.5923 18.1562 57.8622C17.3279 57.3852 16.8507 56.6758 16.7245 55.7341C16.6056 54.7798 16.8533 53.7693 17.4677 52.7025C17.8291 52.075 18.2728 51.5367 18.7989 51.0876C19.3196 50.6187 19.8767 50.3044 20.47 50.1448L21.2503 51.271C20.7019 51.4398 20.1988 51.7184 19.7412 52.1066C19.2783 52.4751 18.9095 52.8978 18.6349 53.3747C18.2301 54.0775 18.061 54.6904 18.1274 55.2134C18.1939 55.7363 18.4531 56.1279 18.9049 56.3881C19.6077 56.7929 20.3269 56.5888 21.0626 55.7757L22.4069 54.2686C23.0452 53.5666 23.6782 53.1206 24.3057 52.9305C24.9208 52.7332 25.5546 52.8224 26.2072 53.1983C27.048 53.6826 27.5217 54.3982 27.628 55.3453C27.7218 56.2851 27.4507 57.3072 26.8147 58.4116Z" fill="#EEEDF2"/>
<path d="M36.3249 44.9414C35.5312 45.9013 34.6848 46.4136 33.7857 46.4783C32.8754 46.5337 31.9404 46.1646 30.9804 45.371L26.7111 41.841L25.396 43.4316L24.3412 42.5595L25.6563 40.9689L23.1617 38.9064L24.2829 37.5502L26.7776 39.6128L28.9094 37.0344L29.9642 37.9065L27.8324 40.4849L31.9678 43.9041C32.604 44.4301 33.2003 44.6976 33.7566 44.7066C34.3018 44.7063 34.8235 44.4048 35.3219 43.8021C35.4695 43.6235 35.5949 43.4265 35.6979 43.211C35.8009 42.9955 35.8901 42.7967 35.9654 42.6147L37.1972 43.2385C37.1554 43.4482 37.0526 43.7203 36.8889 44.0547C36.7251 44.3891 36.5371 44.6847 36.3249 44.9414Z" fill="#EEEDF2"/>
<path d="M40.7619 40.1985C40.2443 40.705 39.6823 41.0624 39.0757 41.2709C38.4694 41.4589 37.8751 41.4933 37.2926 41.3743C36.7101 41.2553 36.2062 40.9784 35.7808 40.5437C35.244 39.995 34.9583 39.4235 34.9238 38.8291C34.8997 38.2246 35.1479 37.536 35.6684 36.7633C36.1891 35.9702 37.0188 35.0165 38.1575 33.9024L38.6544 33.4162L38.1834 32.9348C37.5555 32.293 36.9702 31.964 36.4275 31.9479C35.8851 31.9112 35.3241 32.1765 34.7444 32.7437C34.2889 33.1894 33.9148 33.6871 33.622 34.237C33.3191 34.7765 33.0869 35.4089 32.9254 36.1343L31.5942 35.6436C31.7141 34.9792 31.9726 34.2907 32.3695 33.5781C32.7768 32.8554 33.2392 32.2409 33.7568 31.7344C34.7299 30.7823 35.6823 30.3165 36.6141 30.3369C37.5562 30.3472 38.5185 30.8544 39.5009 31.8585L44.15 36.61L42.9699 37.7647L41.6937 36.4603C41.9325 37.0979 41.9715 37.7487 41.8106 38.4126C41.6601 39.0664 41.3106 39.6617 40.7619 40.1985ZM40.037 39.0538C40.6581 38.4461 40.9577 37.7376 40.9358 36.9283C40.9038 36.1086 40.5637 35.3675 39.9154 34.705L39.4596 34.2392L38.9783 34.7102C38.1398 35.5306 37.5178 36.2202 37.1123 36.7791C36.707 37.3175 36.5022 37.7812 36.498 38.1703C36.4939 38.539 36.654 38.8889 36.9781 39.2202C37.3934 39.6446 37.8776 39.8496 38.4308 39.8352C38.9944 39.8106 39.5298 39.5501 40.037 39.0538Z" fill="#EEEDF2"/>
<path d="M48.3763 33.4519C47.5429 34.1258 46.7164 34.3936 45.8969 34.2554C45.0796 34.0968 44.293 33.5501 43.5372 32.6154L36.1066 23.4257L37.4749 22.3193L44.8236 31.4076C45.7979 32.6126 46.7637 32.8281 47.721 32.0541C48.0025 31.8265 48.2286 31.5878 48.3992 31.3381L49.2942 32.5141C49.0089 32.8752 48.7029 33.1878 48.3763 33.4519Z" fill="#EEEDF2"/>
<path d="M50.511 31.4634L42.1007 18.6637L43.5713 17.6974L48.7606 25.5951L48.7969 25.5712L50.3052 18.9655L52.1752 17.7367L50.5367 24.8959L58.3542 26.3098L56.4842 27.5386L49.298 26.3337L49.2617 26.3576L51.9816 30.4971L50.511 31.4634Z" fill="#EEEDF2"/>
<path d="M67.2555 21.8897L59.897 13.3585L61.6283 12.7162L67.3729 19.645L67.3109 10.6083L68.7163 10.087L74.5296 17.0134L74.399 7.97899L76.0488 7.367L76.0138 18.6409L74.4454 19.2227L68.8066 12.5791L68.8442 21.3004L67.2555 21.8897Z" fill="#EEEDF2"/>
<path d="M77.2104 4.77152L76.7589 2.84688L78.8738 2.35069L79.3254 4.27533L77.2104 4.77152ZM80.4337 17.5599L78.0223 7.28104L79.7354 6.87913L82.1469 17.158L80.4337 17.5599Z" fill="#EEEDF2"/>
<path d="M89.3065 16.0365C88.0765 16.2323 87.1027 16.0574 86.3853 15.5116C85.6655 14.9516 85.2077 14.0566 85.012 12.8265L84.1411 7.35576L82.103 7.68019L81.8879 6.32858L83.926 6.00416L83.4172 2.80751L85.1549 2.53089L85.6638 5.72754L88.9677 5.20163L89.1828 6.55324L85.8789 7.07915L86.7224 12.3783C86.8522 13.1935 87.1228 13.7884 87.5344 14.1628C87.9437 14.523 88.5345 14.6416 89.3069 14.5186C89.5357 14.4822 89.76 14.4172 89.9797 14.3235C90.1995 14.2299 90.3978 14.1397 90.5746 14.0529L91.0867 15.3352C90.9167 15.4649 90.6597 15.6012 90.3158 15.7439C89.9719 15.8866 89.6355 15.9842 89.3065 16.0365Z" fill="#EEEDF2"/>
<path d="M92.1332 15.3845L91.3652 0.0882356L93.1227 0L93.4484 6.48735C93.7636 5.83348 94.2242 5.33182 94.8302 4.98237C95.4499 4.61773 96.1503 4.41581 96.9314 4.37659C99.4338 4.25095 100.755 5.57673 100.894 8.35392L101.224 14.9281L99.4667 15.0163L99.1421 8.55064C99.0927 7.56705 98.8615 6.86086 98.4485 6.43207C98.0492 5.98809 97.43 5.78716 96.5911 5.82928C95.622 5.87793 94.8633 6.22054 94.3153 6.8571C93.7809 7.47847 93.5388 8.28818 93.5889 9.28623L93.8907 15.2962L92.1332 15.3845Z" fill="#EEEDF2"/>
<path d="M113.958 16.1781C112.941 16.0243 112.094 15.669 111.417 15.1124C110.739 14.5558 110.254 13.8452 109.96 12.9804C109.682 12.1035 109.627 11.1138 109.794 10.0112C109.961 8.90853 110.305 7.98661 110.828 7.24538C111.366 6.49199 112.042 5.94969 112.853 5.61846C113.665 5.28723 114.58 5.19854 115.596 5.35239C116.599 5.50408 117.438 5.85821 118.116 6.41481C118.808 6.97357 119.292 7.6914 119.57 8.56829C119.864 9.43304 119.927 10.4167 119.76 11.5193C119.594 12.622 119.241 13.55 118.702 14.3033C118.18 15.0446 117.505 15.5797 116.679 15.9088C115.867 16.24 114.96 16.3298 113.958 16.1781ZM114.169 14.7819C115.143 14.9293 115.975 14.7037 116.667 14.1052C117.36 13.4924 117.804 12.5416 117.999 11.2528C118.196 9.94971 118.053 8.91007 117.57 8.13388C117.087 7.35769 116.359 6.89592 115.385 6.74856C114.397 6.59904 113.557 6.82354 112.866 7.42204C112.189 8.02271 111.752 8.97459 111.555 10.2777C111.36 11.5665 111.496 12.605 111.963 13.3934C112.446 14.1696 113.181 14.6324 114.169 14.7819Z" fill="#EEEDF2"/>
<path d="M124.525 18.446C122.092 17.7369 121.267 16.0406 122.049 13.357L123.884 7.05838L125.574 7.55073L123.744 13.8285C123.481 14.7323 123.467 15.4524 123.703 15.9888C123.953 16.5292 124.474 16.9149 125.266 17.1459C126.129 17.3971 126.914 17.3167 127.622 16.9047C128.335 16.4788 128.831 15.7861 129.11 14.8267L130.788 9.07032L132.477 9.56267L129.523 19.6989L127.876 19.2187L128.374 17.5085C127.876 18.0271 127.286 18.3681 126.605 18.5316C125.942 18.6853 125.249 18.6568 124.525 18.446Z" fill="#EEEDF2"/>
<path d="M131.689 20.5714L135.729 10.8171L137.314 11.4738L136.591 13.2199C137.601 12.2586 138.94 12.053 140.609 12.6032L141.216 12.784L140.754 14.2388L139.681 13.9353C138.724 13.6332 137.9 13.6366 137.208 13.9456C136.521 14.2411 135.997 14.8238 135.637 15.6935L133.335 21.2531L131.689 20.5714Z" fill="#EEEDF2"/>
<path d="M147.19 28.6186C145.782 27.7296 144.926 26.616 144.624 25.2775C144.329 23.9268 144.63 22.541 145.526 21.1203C146.106 20.2018 146.8 19.5094 147.608 19.0432C148.424 18.5647 149.27 18.3366 150.146 18.3589C151.043 18.3766 151.913 18.6522 152.759 19.1855C153.971 19.9508 154.673 20.9417 154.864 22.1584C155.063 23.3629 154.733 24.6449 153.875 26.0043L153.516 26.5738L146.792 22.3302C146.199 23.3777 146.003 24.3409 146.201 25.2199C146.408 26.0867 146.989 26.8215 147.944 27.4244C148.483 27.7645 149.048 28.0096 149.638 28.1595C150.236 28.2973 150.875 28.3154 151.556 28.214L151.41 29.5858C150.766 29.7104 150.062 29.6858 149.298 29.5121C148.542 29.3261 147.84 29.0282 147.19 28.6186ZM152.1 20.311C151.255 19.7776 150.421 19.6197 149.599 19.8371C148.776 20.0546 148.052 20.5649 147.425 21.3682L152.844 24.7885C153.38 23.859 153.585 23.0041 153.461 22.2237C153.35 21.451 152.896 20.8134 152.1 20.311Z" fill="#EEEDF2"/>
<path d="M151.261 30.9175L158.112 29.4864L158.16 22.9215L159.772 24.2446L159.673 29.1937L164.525 28.1448L166.12 29.4541L159.691 30.7819L159.624 37.7808L158.011 36.4578L158.085 31.0943L152.873 32.2405L151.261 30.9175Z" fill="#EEEDF2"/>
<path d="M157.638 41.2926L168.198 31.4019L169.371 32.6545L167.992 33.9465C168.685 33.7335 169.377 33.7306 170.067 33.9376C170.777 34.1452 171.42 34.5556 171.994 35.1687C172.638 35.8558 173.033 36.6064 173.181 37.4207C173.349 38.2357 173.26 39.0627 172.915 39.9019C172.59 40.7417 172.016 41.5477 171.191 42.32C170.377 43.0823 169.536 43.603 168.666 43.8819C167.816 44.1615 166.985 44.1958 166.173 43.9848C165.37 43.7843 164.646 43.3406 164.003 42.6535C163.449 42.0616 163.086 41.4093 162.914 40.6967C162.743 39.9841 162.786 39.299 163.043 38.6414L158.841 42.5769L157.638 41.2926ZM164.781 41.4187C165.454 42.1374 166.248 42.4759 167.161 42.434C168.085 42.3823 169.022 41.9109 169.974 41.0199C170.936 40.1189 171.467 39.2141 171.569 38.3055C171.67 37.3969 171.384 36.5832 170.711 35.8644C170.038 35.1457 169.244 34.8072 168.331 34.8491C167.418 34.8909 166.48 35.3623 165.518 36.2633C164.567 37.1543 164.035 38.0591 163.923 38.9776C163.822 39.8862 164.108 40.6999 164.781 41.4187Z" fill="#EEEDF2"/>
<path d="M171.191 51.5144C170.221 50.1604 169.848 48.8064 170.072 47.4525C170.307 46.0902 171.108 44.9198 172.474 43.9415C173.357 43.309 174.26 42.929 175.184 42.8015C176.12 42.6656 176.99 42.773 177.794 43.1238C178.617 43.4779 179.32 44.0612 179.902 44.8736C180.737 46.0392 181.014 47.2215 180.733 48.4206C180.463 49.6113 179.675 50.6747 178.368 51.6108L177.821 52.003L173.19 45.5392C172.247 46.2862 171.702 47.1044 171.555 47.9935C171.42 48.8742 171.681 49.7737 172.339 50.6921C172.71 51.2101 173.141 51.6498 173.631 52.0111C174.133 52.364 174.718 52.6216 175.387 52.7841L174.735 53.9996C174.091 53.8725 173.449 53.5847 172.807 53.136C172.176 52.6789 171.638 52.1384 171.191 51.5144ZM178.868 45.6679C178.286 44.8555 177.573 44.3952 176.729 44.2869C175.886 44.1786 175.022 44.3784 174.139 44.8863L177.871 50.0963C178.717 49.4369 179.229 48.7223 179.409 47.9527C179.596 47.1948 179.416 46.4332 178.868 45.6679Z" fill="#EEEDF2"/>
<path d="M174.731 56.5055L183.919 51.3038L184.764 52.7973L183.119 53.7284C184.507 53.592 185.689 54.2542 186.666 55.715L187.033 56.2311L185.774 57.0937L185.114 56.1938C184.546 55.367 183.895 54.8623 183.159 54.6798C182.436 54.4901 181.664 54.6271 180.845 55.0909L175.609 58.0556L174.731 56.5055Z" fill="#EEEDF2"/>
<path d="M179.966 67.1622C179.451 66.0281 179.362 65.0428 179.698 64.2063C180.047 63.3639 180.789 62.6851 181.923 62.1702L186.967 59.8798L186.113 58.0006L187.359 57.4348L188.213 59.3139L191.16 57.9756L191.888 59.5778L188.94 60.9161L190.324 63.9623L189.077 64.5281L187.694 61.482L182.808 63.7005C182.057 64.0418 181.555 64.4606 181.303 64.9567C181.064 65.4468 181.107 66.0479 181.43 66.76C181.526 66.971 181.648 67.17 181.797 67.3571C181.945 67.5441 182.085 67.7114 182.215 67.8588L181.115 68.6926C180.945 68.5631 180.745 68.3515 180.516 68.0578C180.287 67.764 180.104 67.4655 179.966 67.1622Z" fill="#EEEDF2"/>
<path d="M182.285 73.255C182.021 72.4727 181.881 71.6946 181.865 70.9207C181.848 70.1467 181.963 69.4662 182.208 68.8792L183.562 69.0189C183.33 69.6471 183.218 70.2887 183.225 70.9436C183.25 71.6076 183.367 72.2483 183.575 72.8659C183.839 73.6482 184.182 74.1898 184.604 74.4906C185.026 74.7915 185.484 74.8586 185.979 74.6921C186.363 74.5625 186.621 74.3304 186.753 73.9956C186.898 73.6562 186.938 73.1843 186.871 72.58L186.652 70.5679C186.449 68.7412 187.04 67.5942 188.426 67.127C189.332 66.8217 190.18 66.9333 190.969 67.4619C191.763 68.0042 192.357 68.8587 192.75 70.0252C192.981 70.7114 193.091 71.4003 193.08 72.0919C193.087 72.7926 192.954 73.4182 192.681 73.9687L191.32 73.8084C191.557 73.2855 191.681 72.7241 191.692 72.1241C191.723 71.5332 191.65 70.977 191.474 70.4554C191.215 69.6869 190.867 69.1545 190.431 68.8583C189.995 68.5621 189.53 68.4972 189.036 68.6638C188.267 68.9228 187.944 69.5972 188.067 70.6868L188.308 72.6919C188.411 73.635 188.327 74.4048 188.054 75.0011C187.795 75.5927 187.309 76.0089 186.595 76.2494C185.676 76.5594 184.826 76.4409 184.045 75.8939C183.279 75.3424 182.692 74.4627 182.285 73.255Z" fill="#EEEDF2"/>
<path d="M190.835 86.1124L192.285 85.9796L192.839 92.037L191.39 92.1698L190.835 86.1124Z" fill="#EEEDF2"/>
</svg>
