<svg width="194" height="194" viewBox="0 0 194 194" fill="none" xmlns="http://www.w3.org/2000/svg">
<circle cx="97.55" cy="97.2688" r="72.5329" fill="#AFF143"/>
<path d="M131.947 113.235C131.901 112.131 131.81 111.071 131.765 110.055V84.9716C131.765 80.9971 131.083 77.7293 130.219 77.7293C130.219 77.5527 129.992 77.3759 129.583 77.3319C116.987 76.5813 104.301 76.1836 91.6144 76.1836H68.424C66.6052 76.1836 65.1046 76.846 65.1046 77.6849C64.9228 77.6849 64.7407 78.1265 64.6954 79.0541C64.4681 85.8991 64.1042 92.7441 63.9225 99.6333C63.8316 103.078 63.786 106.523 63.8316 109.967C63.8316 111.689 63.9681 113.456 63.9225 115.046V115.973C63.9225 116.327 64.0134 116.68 64.1954 116.989C64.3772 117.298 64.6957 117.519 65.0592 117.651C65.241 117.74 65.4231 117.784 65.6048 117.872L65.9687 118.005C66.196 118.093 66.3325 118.137 66.5599 118.27C66.8328 118.358 67.0602 118.491 67.3328 118.535C67.5601 118.579 67.8331 118.667 68.1057 118.711L68.8334 118.844C70.7887 119.065 72.6076 118.977 74.3808 118.888C76.154 118.756 77.9276 118.579 79.61 118.535L90.2048 118.623C97.2985 118.667 104.392 118.667 111.485 118.711H119.625H120.352L121.125 118.756C122.171 118.844 123.262 118.976 124.354 119.065C125.445 119.153 126.582 119.197 127.764 119.197C128.082 119.197 128.355 119.197 128.674 119.153C128.81 119.153 128.992 119.109 129.174 119.109C129.356 119.064 129.492 119.064 129.72 118.976L130.447 118.667C130.675 118.535 130.902 118.402 131.084 118.226C131.22 118.005 131.448 117.828 131.538 117.607C131.675 117.387 131.811 117.166 131.857 116.901C131.902 116.68 131.948 116.503 131.993 116.371C132.039 116.194 132.039 116.017 132.084 115.885C132.13 115.576 132.13 115.267 132.13 115.002C131.947 114.339 131.947 113.809 131.947 113.235L131.947 113.235ZM121.17 115.708L120.306 115.62C120.034 115.575 119.624 115.575 119.397 115.575H111.258C104.164 115.62 97.0707 115.62 89.9772 115.664L84.6571 115.708L82.0197 115.752H79.2914C77.4269 115.841 75.6993 116.106 73.9257 116.238C72.1977 116.415 70.4698 116.503 68.8783 116.371L68.6509 116.326C68.8327 116.194 69.0147 116.106 69.1965 115.973L89.2948 101.797C90.2951 102.769 91.2954 103.74 92.3413 104.668C92.9778 105.198 93.6598 105.727 94.3875 106.258C94.7513 106.523 95.1604 106.744 95.6152 106.964C95.8425 107.097 96.1155 107.185 96.3881 107.273L96.6154 107.318L96.9337 107.406L97.5249 107.45C97.8431 107.406 98.1614 107.362 98.4343 107.23C98.5708 107.185 98.7525 107.141 98.8434 107.053L99.1617 106.876C99.4799 106.656 99.7981 106.435 100.071 106.214C100.617 105.772 101.117 105.331 101.572 104.845L102.936 103.476C103.163 103.255 103.391 103.034 103.527 102.902L104.255 102.283L105.346 101.356C107.801 102.99 110.257 104.668 112.712 106.302C117.668 109.614 122.67 112.838 127.718 116.062C127.581 116.062 127.445 116.062 127.309 116.106C126.353 116.15 125.308 116.062 124.262 115.973C123.308 115.929 122.262 115.84 121.17 115.708L121.17 115.708ZM65.3316 78.3916C65.8772 78.9215 67.0139 79.2748 68.3328 79.2748H91.5232C104.21 79.2748 116.896 78.8775 129.492 78.1265H129.628C128.992 79.098 128.537 81.792 128.537 84.9715V97.5575L128.537 103.873V110.276C128.582 111.38 128.673 112.396 128.718 113.412C128.718 113.898 128.764 114.428 128.718 114.869C128.718 115.09 128.673 115.311 128.673 115.532V115.664C123.898 111.911 119.033 108.245 114.168 104.58C111.985 102.946 109.802 101.312 107.574 99.7221L126.036 84.4864C127.764 83.0733 128.718 81.3951 128.127 80.777C127.582 80.1588 125.717 80.777 123.989 82.1901L102.39 100.031L101.663 100.649C101.345 100.914 101.117 101.179 100.844 101.399L99.4801 102.724C99.0254 103.166 98.5707 103.563 98.1616 103.916C97.9343 104.093 97.7525 104.27 97.5251 104.402L97.4343 104.447H97.3887C97.2978 104.402 97.1613 104.358 97.0248 104.314C96.7519 104.182 96.4337 104.005 96.161 103.828C95.5699 103.431 94.9334 102.989 94.3422 102.503C93.1598 101.532 91.9778 100.472 90.841 99.4121L87.4306 96.1C86.2939 94.9959 85.2027 93.8476 83.8386 92.7436C78.8367 88.7247 73.7894 84.7503 68.7421 80.8641C67.9235 80.246 67.4688 80.7759 68.1965 81.4383C72.8342 85.8104 77.5181 90.1823 82.2926 94.4659C83.3837 95.4374 84.4297 96.674 85.5212 97.8223C86.0668 98.3965 86.6124 99.0146 87.2036 99.5888L67.4236 113.544C66.9689 113.853 66.5598 114.206 66.1959 114.56C66.1503 112.926 66.0142 111.468 65.9686 109.923C65.7868 106.522 65.6956 103.078 65.6503 99.6772C65.5591 92.7876 65.5591 85.9422 65.4227 79.0972C65.3774 78.7882 65.3774 78.5673 65.3318 78.3908L65.3316 78.3916Z" fill="#1C1C1C"/>
</svg>