<svg width="60" height="60" viewBox="0 0 60 60" fill="none" xmlns="http://www.w3.org/2000/svg">
<path d="M22.9501 4.88241C22.8736 4.88241 22.8016 4.88241 22.7296 4.88691C21.2308 4.31101 19.66 4 18.0352 4C8.08795 4 0 15.4686 0 29.5613C0 43.6541 8.08851 55.1221 18.0352 55.1221C18.0982 55.1221 18.1612 55.1131 18.2242 55.1131C19.7545 55.698 21.3433 56 22.9501 56C32.8928 56 40.9853 44.5314 40.9853 30.4392C40.9853 16.347 32.8928 4.88241 22.9501 4.88241ZM18.0347 53.7717C8.83483 53.7717 1.34977 42.9111 1.34977 29.5608C1.34977 16.2109 8.83483 5.34977 18.0347 5.34977C27.2345 5.34977 34.7201 16.2115 34.7201 29.5613C34.7201 42.9111 27.235 53.7717 18.0347 53.7717Z" fill="#1C1C1C"/>
<path d="M22.0226 11.5976C21.9371 11.5031 21.8291 11.4311 21.7031 11.3951C20.5013 10.6837 19.2499 10.3013 18.0346 10.3013C12.4847 10.3013 6.30054 18.2138 6.30054 29.5608C6.30054 40.9079 12.4847 48.8204 18.0346 48.8204C18.552 48.8204 19.0789 48.7484 19.6009 48.6134C19.6369 48.6089 19.6683 48.5999 19.6998 48.5864C24.7497 47.2136 29.7686 39.7826 29.7686 29.5608C29.7686 20.9195 26.1816 14.2758 22.0226 11.5976ZM19.5919 47.2277C16.0588 44.9094 12.5663 38.9007 12.5663 30.4388C12.5663 20.9684 17.0312 14.1048 21.4332 12.7725C25.1692 15.2032 28.4188 21.4324 28.4188 29.5608C28.4183 39.0042 24.0343 45.8863 19.5919 47.2277Z" fill="#1C1C1C"/>
</svg>
