<svg width="41" height="58" viewBox="0 0 41 58" fill="none" xmlns="http://www.w3.org/2000/svg">
<path d="M28.9193 33.7636L39.6651 39.1765C39.7995 39.2438 39.9404 39.2739 40.0813 39.2739C40.32 39.2739 40.5586 39.1823 40.7362 38.9996C41.018 38.7189 41.0791 38.2864 40.8951 37.9391L21.3128 0.487655C21.1539 0.189038 20.8419 0 20.499 0C20.1561 0 19.8441 0.189038 19.6852 0.487655L0.1029 37.9391C-0.0804428 38.2864 -0.0135376 38.7196 0.261798 38.9996C0.543567 39.2861 0.977801 39.3533 1.33291 39.1765L12.0787 33.7636L0.1029 56.6648C-0.0804428 57.0185 -0.0135376 57.4453 0.261798 57.7317C0.543567 58.0124 0.977801 58.0791 1.33291 57.9022L20.499 48.2465L39.6651 57.9022C39.7995 57.9695 39.9404 57.9996 40.0813 57.9996C40.32 57.9996 40.5586 57.908 40.7362 57.7311C41.0115 57.4447 41.0791 57.0179 40.8951 56.6642L28.9193 33.7636ZM3.04668 36.2627L20.499 2.88941L37.9513 36.2627L20.9152 27.6797C20.7808 27.6124 20.6399 27.5823 20.499 27.5823C20.3581 27.5823 20.2172 27.6131 20.0828 27.6797L3.04668 36.2627Z" fill="black"/>
</svg>
