<svg width="34" height="34" viewBox="0 0 34 34" fill="none" xmlns="http://www.w3.org/2000/svg">
<path d="M25.3693 4.5415H5.1055C4.79307 4.5415 4.54126 4.79372 4.54126 5.10574V25.3695C4.54126 25.682 4.79348 25.9338 5.1055 25.9338H25.3693C25.6817 25.9338 25.9335 25.6816 25.9335 25.3695V5.10574C25.9339 4.79332 25.6817 4.5415 25.3693 4.5415ZM24.8051 24.8053H9.19512V9.19536H24.8051V24.8053Z" fill="#AF87FF"/>
<path d="M33.4358 3.52538H30.4746V0.56424C30.4746 0.251813 30.2224 0 29.9104 0H0.564239C0.251812 0 0 0.25222 0 0.56424V29.9104C0 30.2228 0.252219 30.4746 0.564239 30.4746H3.52538V33.4358C3.52538 33.7482 3.7776 34 4.08962 34H33.4358C33.7482 34 34 33.7478 34 33.4358V4.09002C34 3.7776 33.7482 3.52538 33.4358 3.52538ZM1.12848 29.3465V1.12889H29.3461V29.3465H1.12848Z" fill="#AF87FF"/>
</svg>
