<svg width="34" height="33" viewBox="0 0 34 33" fill="none" xmlns="http://www.w3.org/2000/svg">
<path d="M33.9191 11.1563C33.7063 10.4926 33.1148 10.0638 32.4165 10.0638H22.9821L20.0678 1.09251C19.8517 0.428852 19.2635 0 18.5652 0C17.8673 0 17.2786 0.428852 17.0626 1.09251L16.3174 3.39619C16.0638 3.22703 15.7634 3.13001 15.4348 3.13001C14.7369 3.13001 14.1483 3.55886 13.9322 4.21927L12.0321 10.0634H4.71386C4.01594 10.0634 3.42406 10.4923 3.21125 11.1559C2.99521 11.8196 3.22063 12.5114 3.78402 12.9215L4.15661 13.1938H1.58349C0.885568 13.1938 0.293686 13.6227 0.0808833 14.2863C-0.135166 14.95 0.0902615 15.6418 0.653649 16.0519L8.28535 21.5988L5.37103 30.5701C5.15498 31.2337 5.38041 31.9255 5.94379 32.3356C6.22549 32.5423 6.55118 32.6455 6.87363 32.6455C7.19609 32.6455 7.52142 32.5423 7.80348 32.3356L15.4352 26.7919L23.0669 32.3356C23.6303 32.7457 24.3596 32.7457 24.9262 32.3356C25.4896 31.9255 25.715 31.2337 25.499 30.5701L24.704 28.1221L26.1972 29.2053C26.4789 29.4119 26.8014 29.5151 27.1238 29.5151C27.4495 29.5151 27.7749 29.4119 28.0566 29.2053C28.62 28.7952 28.8454 28.1001 28.6293 27.4397L25.9372 19.1602L30.2163 16.0519C30.6578 15.7326 30.8861 15.241 30.8674 14.7245L33.3464 12.9215C33.9097 12.5117 34.1352 11.82 33.9191 11.1563ZM29.6652 15.2912L21.7551 21.0383C21.5924 21.1573 21.5235 21.3701 21.5859 21.5642L23.3608 27.0296C23.3641 27.039 23.367 27.0516 23.3735 27.0642L24.6066 30.8612C24.713 31.1868 24.5565 31.4433 24.3718 31.5778C24.1904 31.7091 23.8961 31.778 23.6205 31.5778L15.7104 25.8307C15.5477 25.7117 15.3223 25.7117 15.1596 25.8307L7.24947 31.5778C6.9739 31.778 6.67995 31.7091 6.49816 31.5778C6.31349 31.4433 6.15696 31.1865 6.26336 30.8612L9.28408 21.5642C9.34684 21.3701 9.27795 21.1573 9.11492 21.0383L1.20477 15.2912C0.929211 15.091 0.904324 14.7902 0.973214 14.5745C1.0421 14.3617 1.2394 14.133 1.58349 14.133H5.5997C5.5997 14.133 5.5997 14.133 5.60295 14.133C5.60295 14.133 5.60619 14.133 5.60908 14.133H11.3595C11.5596 14.133 11.7414 14.0014 11.8038 13.8073L12.8087 10.7177C12.8119 10.7116 12.8119 10.7051 12.8148 10.699L14.8245 4.51035C14.9309 4.18465 15.2097 4.06887 15.4348 4.06887C15.6602 4.06887 15.9387 4.18465 16.0451 4.51035L19.0658 13.8073C19.1286 14.0014 19.31 14.133 19.5102 14.133H29.2858C29.6302 14.133 29.8272 14.3617 29.8961 14.5745C29.9657 14.7905 29.9408 15.091 29.6652 15.2912Z" fill="#FFDE03"/>
</svg>
