<svg width="34" height="31" viewBox="0 0 34 31" fill="none" xmlns="http://www.w3.org/2000/svg">
<path d="M24.8935 25.785H34L21.1075 0L16.5545 9.10653L14.0376 4.07282C13.9353 3.86815 13.7262 3.73882 13.4969 3.73882C13.2677 3.73882 13.059 3.86815 12.9562 4.07282L0.0637574 29.8578C-0.0297131 30.0451 -0.0200437 30.2675 0.0903482 30.4456C0.20074 30.6237 0.394934 30.7321 0.604436 30.7321H26.3894C26.5989 30.7321 26.7935 30.6237 26.9035 30.4456C27.0131 30.2675 27.0236 30.0447 26.9297 29.8578L24.8935 25.785ZM1.58225 29.5238L13.4969 5.69445L15.6753 10.0517C15.6753 10.0521 15.6758 10.0525 15.6758 10.0525L23.6771 26.0553L23.6776 26.0557L25.4116 29.5238H1.58225Z" fill="#AF87FF"/>
</svg>
