<svg width="135" height="135" viewBox="0 0 135 135" fill="none" xmlns="http://www.w3.org/2000/svg">
<circle cx="67.1992" cy="67.8807" r="66.9998" fill="#AFF143"/>
<path d="M98.9723 82.6286C98.9302 81.6088 98.8462 80.6299 98.8044 79.6916V56.5214C98.8044 52.8501 98.1744 49.8316 97.3764 49.8316C97.3764 49.6685 97.1664 49.5052 96.7885 49.4646C85.1538 48.7711 73.4351 48.4038 61.7164 48.4038H40.2951C38.615 48.4038 37.2289 49.0157 37.2289 49.7906C37.061 49.7906 36.8928 50.1985 36.8509 51.0553C36.6409 57.3782 36.3049 63.701 36.137 70.0647C36.053 73.2466 36.0109 76.4285 36.053 79.6101C36.053 81.2009 36.1791 82.8326 36.137 84.3013V85.1581C36.137 85.4845 36.2209 85.8109 36.3891 86.0964C36.557 86.3819 36.8512 86.5858 37.187 86.7083C37.3549 86.7898 37.5231 86.8307 37.691 86.9122L38.0271 87.0347C38.2371 87.1162 38.3631 87.1571 38.5732 87.2795C38.8253 87.361 39.0353 87.4835 39.2871 87.5244C39.4971 87.5653 39.7493 87.6468 40.0011 87.6874L40.6732 87.8099C42.4794 88.0138 44.1595 87.9323 45.7975 87.8508C47.4354 87.7283 49.0738 87.5653 50.6278 87.5244L60.4144 87.6059C66.9669 87.6468 73.5192 87.6468 80.0716 87.6874H87.59H88.2622L88.9761 87.7283C89.9423 87.8099 90.9502 87.9323 91.9585 88.0138C92.9664 88.0954 94.0164 88.1363 95.1086 88.1363C95.4026 88.1363 95.6547 88.1363 95.9487 88.0954C96.0748 88.0954 96.2427 88.0545 96.4108 88.0545C96.5787 88.0136 96.7048 88.0136 96.9148 87.932L97.587 87.6465C97.797 87.5241 98.007 87.4017 98.1749 87.2386C98.3009 87.0347 98.511 86.8716 98.5949 86.6676C98.721 86.4637 98.847 86.2597 98.8889 86.0148C98.931 85.8109 98.9728 85.6478 99.0149 85.5254C99.057 85.3623 99.057 85.199 99.0989 85.0766C99.141 84.7911 99.141 84.5056 99.141 84.2607C98.972 83.6486 98.972 83.1591 98.972 82.6287L98.9723 82.6286ZM89.0177 84.9131L88.2198 84.8316C87.9676 84.7907 87.5897 84.7907 87.3797 84.7907H79.8613C73.3087 84.8316 66.7565 84.8316 60.2041 84.8722L55.2899 84.9131L52.8536 84.954H50.3335C48.6113 85.0356 47.0154 85.2804 45.3771 85.4029C43.781 85.5659 42.1848 85.6477 40.7147 85.5253L40.5047 85.4844C40.6726 85.362 40.8408 85.2804 41.0087 85.158L59.5738 72.0636C60.4978 72.9609 61.4218 73.8583 62.3879 74.7151C62.9758 75.2046 63.6058 75.694 64.278 76.1838C64.6141 76.4286 64.992 76.6326 65.412 76.8366C65.622 76.959 65.8741 77.0405 66.126 77.1221L66.336 77.163L66.6299 77.2445L67.176 77.2854C67.47 77.2445 67.764 77.2038 68.0161 77.0814C68.1422 77.0405 68.31 76.9999 68.394 76.9184L68.688 76.7553C68.9819 76.5513 69.2759 76.3474 69.528 76.1434C70.032 75.7355 70.4941 75.3276 70.9142 74.8787L72.1742 73.614C72.3843 73.41 72.5943 73.2061 72.7203 73.0836L73.3925 72.5126L74.4004 71.6559C76.6684 73.1651 78.9367 74.7153 81.2047 76.2246C85.7829 79.284 90.4033 82.2619 95.0656 85.2397C94.9395 85.2397 94.8134 85.2397 94.6877 85.2806C93.8055 85.3215 92.8397 85.2397 91.8736 85.1582C90.9919 85.117 90.0258 85.0355 89.0179 84.9131L89.0177 84.9131ZM37.4386 50.4434C37.9426 50.9329 38.9926 51.2592 40.2109 51.2592H61.6322C73.3509 51.2592 85.0696 50.8922 96.7043 50.1985H96.8303C96.2424 51.0959 95.8224 53.5844 95.8224 56.5214V68.1472L95.8222 73.9807V79.8959C95.8643 80.9157 95.9482 81.854 95.9901 82.7923C95.9901 83.2411 96.0322 83.7306 95.9901 84.1385C95.9901 84.3425 95.9479 84.5464 95.9479 84.7504V84.8728C91.5377 81.4054 87.0434 78.0197 82.5491 74.6339C80.5329 73.1246 78.5168 71.6154 76.4588 70.1467L93.5118 56.0732C95.108 54.7679 95.9898 53.2178 95.4441 52.6468C94.9401 52.0758 93.2178 52.6468 91.6217 53.9521L71.6705 70.4316L70.9983 71.0026C70.7044 71.2475 70.4944 71.4921 70.2422 71.696L68.9821 72.9198C68.5621 73.3277 68.1421 73.6947 67.7642 74.0211C67.5542 74.1842 67.3863 74.3475 67.1763 74.4699L67.0923 74.5108H67.0502C66.9663 74.47 66.8402 74.4293 66.7141 74.3884C66.462 74.266 66.1681 74.1029 65.9162 73.9396C65.3701 73.5726 64.7822 73.1647 64.2361 72.7158C63.1439 71.8184 62.0521 70.8392 61.002 69.8603L57.8518 66.8009C56.8018 65.7811 55.7938 64.7203 54.5338 63.7005C49.9135 59.9883 45.2512 56.3171 40.5889 52.7273C39.8328 52.1563 39.4128 52.6458 40.0849 53.2577C44.3689 57.2963 48.6955 61.3346 53.1057 65.2915C54.1137 66.1888 55.0798 67.3311 56.0881 68.3918C56.592 68.9222 57.096 69.4932 57.6421 70.0236L39.371 82.914C38.9509 83.1995 38.5731 83.5259 38.237 83.8523C38.1949 82.3431 38.0691 80.9968 38.027 79.5691C37.8591 76.4281 37.7748 73.2462 37.733 70.1052C37.6488 63.7412 37.6488 57.418 37.5227 51.0952C37.4809 50.8097 37.4809 50.6057 37.4388 50.4427L37.4386 50.4434Z" fill="#1C1C1C"/>
</svg>
