<svg width="194" height="194" viewBox="0 0 194 194" fill="none" xmlns="http://www.w3.org/2000/svg">
<circle cx="96.9257" cy="97.2688" r="72.5329" fill="#AFF143"/>
<circle cx="96.9257" cy="97.2688" r="72.5329" fill="url(#paint0_linear_452_1087)"/>
<path d="M131.323 113.235C131.277 112.131 131.186 111.071 131.141 110.055V84.9716C131.141 80.9971 130.459 77.7293 129.595 77.7293C129.595 77.5527 129.368 77.3759 128.959 77.3319C116.363 76.5813 103.677 76.1836 90.9901 76.1836H67.7998C65.9809 76.1836 64.4803 76.846 64.4803 77.6849C64.2985 77.6849 64.1165 78.1265 64.0712 79.0541C63.8438 85.8991 63.48 92.7441 63.2982 99.6333C63.2073 103.078 63.1618 106.523 63.2073 109.967C63.2073 111.689 63.3438 113.456 63.2982 115.046V115.973C63.2982 116.327 63.3891 116.68 63.5712 116.989C63.7529 117.298 64.0715 117.519 64.435 117.651C64.6167 117.74 64.7988 117.784 64.9806 117.872L65.3444 118.005C65.5718 118.093 65.7082 118.137 65.9356 118.27C66.2085 118.358 66.4359 118.491 66.7085 118.535C66.9359 118.579 67.2088 118.667 67.4815 118.711L68.2091 118.844C70.1645 119.065 71.9833 118.977 73.7565 118.888C75.5298 118.756 77.3034 118.579 78.9857 118.535L89.5805 118.623C96.6742 118.667 103.768 118.667 110.861 118.711H119H119.728L120.501 118.756C121.547 118.844 122.638 118.976 123.73 119.065C124.821 119.153 125.958 119.197 127.14 119.197C127.458 119.197 127.731 119.197 128.049 119.153C128.186 119.153 128.368 119.109 128.55 119.109C128.731 119.064 128.868 119.064 129.095 118.976L129.823 118.667C130.05 118.535 130.278 118.402 130.459 118.226C130.596 118.005 130.823 117.828 130.914 117.607C131.051 117.387 131.187 117.166 131.232 116.901C131.278 116.68 131.323 116.503 131.369 116.371C131.414 116.194 131.414 116.017 131.46 115.885C131.505 115.576 131.505 115.267 131.505 115.002C131.322 114.339 131.322 113.809 131.322 113.235L131.323 113.235ZM120.546 115.708L119.682 115.62C119.409 115.575 119 115.575 118.773 115.575H110.633C103.54 115.62 96.4464 115.62 89.3529 115.664L84.0328 115.708L81.3954 115.752H78.6671C76.8027 115.841 75.0751 116.106 73.3015 116.238C71.5735 116.415 69.8455 116.503 68.254 116.371L68.0266 116.326C68.2084 116.194 68.3905 116.106 68.5722 115.973L88.6705 101.797C89.6708 102.769 90.6711 103.74 91.717 104.668C92.3535 105.198 93.0355 105.727 93.7632 106.258C94.1271 106.523 94.5362 106.744 94.9909 106.964C95.2182 107.097 95.4912 107.185 95.7638 107.273L95.9912 107.318L96.3094 107.406L96.9006 107.45C97.2188 107.406 97.5371 107.362 97.81 107.23C97.9465 107.185 98.1283 107.141 98.2192 107.053L98.5374 106.876C98.8556 106.656 99.1739 106.435 99.4468 106.214C99.9924 105.772 100.493 105.331 100.947 104.845L102.312 103.476C102.539 103.255 102.766 103.034 102.903 102.902L103.63 102.283L104.722 101.356C107.177 102.99 109.633 104.668 112.088 106.302C117.044 109.614 122.046 112.838 127.093 116.062C126.957 116.062 126.82 116.062 126.684 116.106C125.729 116.15 124.684 116.062 123.638 115.973C122.683 115.929 121.637 115.84 120.546 115.708L120.546 115.708ZM64.7073 78.3916C65.2529 78.9215 66.3897 79.2748 67.7086 79.2748H90.8989C103.585 79.2748 116.272 78.8775 128.867 78.1265H129.004C128.367 79.098 127.913 81.792 127.913 84.9715V97.5575L127.912 103.873V110.276C127.958 111.38 128.049 112.396 128.094 113.412C128.094 113.898 128.14 114.428 128.094 114.869C128.094 115.09 128.049 115.311 128.049 115.532V115.664C123.274 111.911 118.409 108.245 113.543 104.58C111.361 102.946 109.178 101.312 106.95 99.7221L125.411 84.4864C127.139 83.0733 128.094 81.3951 127.503 80.777C126.958 80.1588 125.093 80.777 123.365 82.1901L101.766 100.031L101.039 100.649C100.72 100.914 100.493 101.179 100.22 101.399L98.8559 102.724C98.4012 103.166 97.9464 103.563 97.5373 103.916C97.31 104.093 97.1282 104.27 96.9009 104.402L96.81 104.447H96.7644C96.6735 104.402 96.537 104.358 96.4006 104.314C96.1276 104.182 95.8094 104.005 95.5368 103.828C94.9456 103.431 94.3091 102.989 93.7179 102.503C92.5355 101.532 91.3535 100.472 90.2167 99.4121L86.8064 96.1C85.6696 94.9959 84.5784 93.8476 83.2143 92.7436C78.2124 88.7247 73.1651 84.7503 68.1178 80.8641C67.2993 80.246 66.8446 80.7759 67.5722 81.4383C72.2099 85.8104 76.8938 90.1823 81.6683 94.4659C82.7595 95.4374 83.8054 96.674 84.8969 97.8223C85.4425 98.3965 85.9881 99.0146 86.5793 99.5888L66.7993 113.544C66.3446 113.853 65.9355 114.206 65.5717 114.56C65.5261 112.926 65.3899 111.468 65.3443 109.923C65.1625 106.522 65.0713 103.078 65.0261 99.6772C64.9349 92.7876 64.9349 85.9422 64.7984 79.0972C64.7531 78.7882 64.7531 78.5673 64.7075 78.3908L64.7073 78.3916Z" fill="#1C1C1C"/>
<defs>
<linearGradient id="paint0_linear_452_1087" x1="21.4793" y1="120.344" x2="175.826" y2="120.483" gradientUnits="userSpaceOnUse">
<stop stop-color="#A0EF93"/>
<stop offset="0.916667" stop-color="#D9FF6F"/>
</linearGradient>
</defs>
</svg>
