<svg width="34" height="34" viewBox="0 0 34 34" fill="none" xmlns="http://www.w3.org/2000/svg">
<path d="M33.4856 14.1757H29.3281V10.5322H23.4678V4.15752C23.4678 3.87343 23.2378 3.64348 22.9537 3.64348H18.7959V0H10.5322V10.5322H0V18.7959H3.64382V22.9537C3.64382 23.2378 3.87377 23.4678 4.15786 23.4678H10.5322V29.3281H14.1761V33.486C14.1761 33.7701 14.406 34 14.6901 34H22.9537C23.2378 34 23.4678 33.7701 23.4678 33.486V23.4678H33.4856C33.7697 23.4678 33.9997 23.2378 33.9997 22.9537V14.6898C33.9997 14.406 33.7697 14.1757 33.4856 14.1757ZM32.9716 22.4397H22.9537C22.6696 22.4397 22.4397 22.6696 22.4397 22.9537V32.9716H15.2038V22.9537C15.2038 22.6696 14.9738 22.4397 14.6898 22.4397H4.67155V15.2038H14.6898C14.9738 15.2038 15.2038 14.9738 15.2038 14.6898V4.67155H22.4394V14.6898C22.4394 14.9738 22.6693 15.2038 22.9534 15.2038H32.9712L32.9716 22.4397Z" fill="#FFDE03"/>
</svg>
