<svg width="46" height="54" viewBox="0 0 46 54" fill="none" xmlns="http://www.w3.org/2000/svg">
<path d="M45.1536 26.4945L26.7415 0.352413C26.4122 -0.109768 25.6438 -0.109768 25.3203 0.352413L22.6569 4.14229L19.9879 0.346635C19.6586 -0.115545 18.896 -0.115545 18.5667 0.346635L0.160319 26.4945C-0.0534396 26.7891 -0.0534396 27.1935 0.160319 27.4882L18.5667 53.636C18.7284 53.8671 18.9942 54 19.2773 54C19.5603 54 19.8261 53.8671 19.9879 53.636L22.6569 49.8404L25.3203 53.6303C25.482 53.8613 25.7478 54 26.0309 54C26.314 54 26.5797 53.8613 26.7415 53.6303L45.1536 27.4882C45.3616 27.1935 45.3616 26.7891 45.1536 26.4945ZM19.2773 51.6313L1.92816 26.9913L19.2773 2.35134L36.6264 26.9913L19.2773 51.6313Z" fill="black"/>
<path d="M31.3287 26.4946L23.4023 15.2289C23.385 15.2058 23.3676 15.1885 23.3503 15.1654L19.9879 10.3818C19.6586 9.91961 18.896 9.91961 18.5667 10.3818L7.22599 26.4946C7.01223 26.7892 7.01223 27.1936 7.22599 27.4882L18.5667 43.601C18.7285 43.8321 18.9943 43.9707 19.2773 43.9707C19.5604 43.9707 19.8262 43.8321 19.9879 43.601L23.3503 38.8174C23.3676 38.7943 23.385 38.777 23.4023 38.7539L31.3287 27.4882C31.5425 27.1936 31.5425 26.7892 31.3287 26.4946ZM22.657 36.8012L15.7474 26.9914L22.657 17.1816L29.5609 26.9914L22.657 36.8012Z" fill="black"/>
</svg>
