<svg width="52" height="52" viewBox="0 0 52 52" fill="none" xmlns="http://www.w3.org/2000/svg">
<path d="M51.24 22.5528H34.3456L46.2955 10.603C46.4375 10.461 46.5184 10.2686 46.5184 10.066C46.5184 9.86342 46.4375 9.67101 46.2955 9.52899L42.4812 5.71472C42.1875 5.42102 41.7062 5.42102 41.4072 5.71472L29.4622 17.6592V0.759961C29.4622 0.339785 29.1229 0 28.7022 0H23.3128C22.8921 0 22.5528 0.339249 22.5528 0.759961V17.6544L10.603 5.704C10.3195 5.42048 9.8125 5.42048 9.52899 5.704L5.71472 9.51827C5.42102 9.81733 5.42102 10.2932 5.71472 10.5923L17.6597 22.5373H0.759961C0.339785 22.5373 0 22.8765 0 23.2973V28.6872C0 29.1074 0.339249 29.4472 0.759961 29.4472H17.6544L5.70453 41.397C5.41084 41.696 5.41084 42.1773 5.70453 42.4758L9.51881 46.2853C9.66566 46.4321 9.86342 46.5082 10.0558 46.5082C10.2482 46.5082 10.446 46.4321 10.5928 46.2853L22.5378 34.3408V51.24C22.5378 51.6602 22.8771 52 23.2978 52H28.6877C29.1084 52 29.4477 51.6608 29.4477 51.24V34.3456L41.3975 46.2955C41.5497 46.4423 41.7421 46.5184 41.9345 46.5184C42.1323 46.5184 42.3247 46.4423 42.4764 46.2955L46.2858 42.4812C46.4278 42.3392 46.5088 42.1468 46.5088 41.9442C46.5088 41.7464 46.4278 41.5492 46.2858 41.4072L34.3408 29.4627H51.24C51.6608 29.4627 52 29.1234 52 28.7027V23.3128C51.9995 22.8921 51.6602 22.5528 51.24 22.5528ZM41.9442 7.32521L44.685 10.066L32.8568 21.8942L30.116 19.1534L41.9442 7.32521ZM7.32521 10.0558L10.066 7.31503L21.8942 19.1486L19.1534 21.884L7.32521 10.0558ZM10.0558 44.6748L7.31503 41.9394L19.1486 30.1058L21.884 32.8466L10.0558 44.6748ZM28.5811 32.2335H23.4189L19.7719 28.5811V23.4189L23.4189 19.7713H28.5811L32.2335 23.4189V28.5811L28.5811 32.2335ZM44.6748 41.9442L41.934 44.685L30.1058 32.8568L32.8466 30.116L44.6748 41.9442Z" fill="black"/>
</svg>
